<svg id="Capa_1" enable-background="new 0 0 512 512" height="512" viewBox="0 0 512 512" width="512" xmlns="http://www.w3.org/2000/svg"><g id="XMLID_1392_"><g id="XMLID_257_"><path id="XMLID_264_" d="m501.987 453.595-129.979-129.98v-99.222c0-5.523-4.477-10-10-10s-10 4.477-10 10v44.024c-10.808-11.646-26.231-18.951-43.334-18.951h-18.091c-2.647-28.65-16.64-54.946-39.315-73.274-24.729-19.989-56.578-27.666-87.378-21.06-23.137 4.961-44.172 17.835-59.233 36.251-15.277 18.681-23.69 42.282-23.69 66.456 0 23.433 7.549 45.603 21.83 64.113 14.33 18.575 36.047 29.332 59.583 29.515.204.001.406.002.61.002 23.479 0 45.294-10.503 59.931-28.88 10.738-13.482 16.652-30.399 16.652-47.636v-1.825c6.398 10.662 9.877 23.018 9.877 35.48 0 32.656 26.567 59.223 59.224 59.223 3.385 0 6.699-.301 9.93-.85l33.404 33.404v82.467c0 5.044-4.104 9.148-9.148 9.148h-313.704c-5.044 0-9.148-4.104-9.148-9.148v-383.704c0-5.044 4.104-9.148 9.148-9.148h313.704c5.044 0 9.148 4.104 9.148 9.148v35.245c0 5.523 4.477 10 10 10s10-4.477 10-10v-35.245c0-16.072-13.076-29.148-29.148-29.148h-72.102v-.178c0-22.509-18.313-40.822-40.822-40.822h-6.227c-4.427-16.675-19.652-29-37.701-29s-33.273 12.325-37.701 29h-6.144c-22.509 0-40.822 18.313-40.822 40.822v.178h-72.185c-16.072 0-29.148 13.076-29.148 29.148v383.703c0 16.073 13.076 29.149 29.148 29.149h313.704c16.073 0 29.148-13.076 29.148-29.148v-62.467l81.595 81.595c6.67 6.669 15.431 10.004 24.192 10.004s17.522-3.335 24.192-10.004c13.34-13.34 13.34-35.045 0-48.385zm-380.646-383.773c0-11.481 9.341-20.822 20.822-20.822h14.845c5.523 0 10-4.477 10-10 0-10.477 8.523-19 19-19s19 8.523 19 19c0 5.523 4.477 10 10 10h14.928c11.481 0 20.822 9.341 20.822 20.822v.178h-129.417zm123.12 179.644c-2.444 0-4.73.805-6.601 2.198-2.476-9.635-7.56-18.574-14.752-25.63-10.345-10.149-23.884-15.608-38.14-15.315-14.09.27-27.292 5.959-37.176 16.023-9.897 10.077-15.348 23.406-15.348 37.531 0 17.647 14.555 32.557 31.782 32.557 5.523 0 10-4.477 10-10s-4.477-10-10-10c-6.276 0-11.782-5.868-11.782-12.557 0-18.157 14.762-33.211 32.906-33.558 8.81-.173 17.271 3.238 23.751 9.596 6.655 6.528 10.472 15.576 10.472 24.823v9.819c0 12.728-4.367 25.22-12.297 35.175-10.816 13.58-26.937 21.34-44.291 21.34-.15 0-.301 0-.451-.001-17.349-.134-33.351-8.055-43.903-21.732-11.557-14.979-17.665-32.925-17.665-51.896 0-39.842 28.227-74.812 67.117-83.151 24.866-5.331 50.604.886 70.612 17.059 17.948 14.508 29.213 35.151 31.788 57.72h-26.022zm24.989 59.142c0-13.55-3.175-27.009-9.114-39.142h48.338c21.583 0 39.142 17.559 39.142 39.142v.082c0 21.583-17.559 39.142-39.142 39.142-21.628-.001-39.224-17.596-39.224-39.224zm89.864 30.598 18.852 18.852-20.1 20.099-18.845-18.845c8.213-4.974 15.123-11.89 20.093-20.106zm128.531 148.631c-5.541 5.542-14.559 5.542-20.1 0l-95.537-95.537 20.1-20.099 95.537 95.537c5.542 5.541 5.542 14.557 0 20.099z"/><path id="XMLID_260_" d="m71.079 434.795c7.313-7.312 19.212-7.313 26.524 0 15.111 15.11 39.698 15.11 54.81 0 7.313-7.314 19.212-7.313 26.524 0 7.32 7.32 17.053 11.351 27.405 11.351s20.084-4.031 27.404-11.351c7.313-7.313 19.212-7.313 26.525 0 7.32 7.32 17.052 11.352 27.404 11.352s20.084-4.031 27.405-11.351c3.905-3.905 3.905-10.237 0-14.143s-10.237-3.905-14.143 0c-3.542 3.543-8.252 5.494-13.262 5.494s-9.719-1.951-13.262-5.494c-15.109-15.11-39.697-15.109-54.809 0-3.542 3.542-8.252 5.493-13.262 5.493s-9.72-1.951-13.263-5.494c-15.11-15.11-39.697-15.11-54.809 0-3.542 3.543-8.252 5.494-13.262 5.494s-9.72-1.951-13.262-5.494c-15.11-15.11-39.697-15.11-54.809 0-3.905 3.905-3.906 10.237 0 14.142 3.906 3.907 10.237 3.906 14.142.001z"/><path id="XMLID_258_" d="m362.008 169.39c-2.63 0-5.21 1.07-7.07 2.93s-2.93 4.44-2.93 7.07c0 2.64 1.07 5.21 2.93 7.07s4.44 2.93 7.07 2.93 5.21-1.07 7.07-2.93 2.93-4.43 2.93-7.07c0-2.63-1.07-5.21-2.93-7.07s-4.44-2.93-7.07-2.93z"/></g></g></svg>