<?xml version="1.0" encoding="utf-8"?>
<!-- Generator: Adobe Illustrator 24.1.1, SVG Export Plug-In . SVG Version: 6.00 Build 0)  -->
<svg version="1.1" id="Capa_1" xmlns="http://www.w3.org/2000/svg" xmlns:xlink="http://www.w3.org/1999/xlink" x="0px" y="0px"
	 viewBox="0 0 512 512" style="enable-background:new 0 0 512 512;" xml:space="preserve">
<style type="text/css">
	.st0{fill:#FFFFFF;}
</style>
<g id="XMLID_1392_">
	<g id="XMLID_257_">
		<path id="XMLID_264_" class="st0" d="M502,453.6l-130-130v-99.2c0-5.5-4.5-10-10-10s-10,4.5-10,10v44c-10.8-11.6-26.2-19-43.3-19
			h-18.1c-2.6-28.6-16.6-54.9-39.3-73.3c-24.7-20-56.6-27.7-87.4-21.1c-23.1,5-44.2,17.8-59.2,36.3C89.4,210.1,81,233.7,81,257.8
			c0,23.4,7.5,45.6,21.8,64.1c14.3,18.6,36,29.3,59.6,29.5c0.2,0,0.4,0,0.6,0c23.5,0,45.3-10.5,59.9-28.9
			c10.7-13.5,16.7-30.4,16.7-47.6v-1.8c6.4,10.7,9.9,23,9.9,35.5c0,32.7,26.6,59.2,59.2,59.2c3.4,0,6.7-0.3,9.9-0.9l33.4,33.4v82.5
			c0,5-4.1,9.1-9.1,9.1H29.2c-5,0-9.1-4.1-9.1-9.1V99.1c0-5,4.1-9.1,9.1-9.1h313.7c5,0,9.1,4.1,9.1,9.1v35.2c0,5.5,4.5,10,10,10
			s10-4.5,10-10V99.1c0-16.1-13.1-29.1-29.1-29.1h-72.1v-0.2c0-22.5-18.3-40.8-40.8-40.8h-6.2C219.3,12.3,204.1,0,186,0
			s-33.3,12.3-37.7,29h-6.1c-22.5,0-40.8,18.3-40.8,40.8V70H29.2C13.1,70,0,83.1,0,99.1v383.7C0,498.9,13.1,512,29.2,512h313.7
			c16.1,0,29.1-13.1,29.1-29.1v-62.5l81.6,81.6c6.7,6.7,15.4,10,24.2,10s17.5-3.3,24.2-10C515.3,488.6,515.3,466.9,502,453.6
			L502,453.6z M121.3,69.8c0-11.5,9.3-20.8,20.8-20.8H157c5.5,0,10-4.5,10-10c0-10.5,8.5-19,19-19s19,8.5,19,19c0,5.5,4.5,10,10,10
			h14.9c11.5,0,20.8,9.3,20.8,20.8V70H121.3V69.8z M244.5,249.5c-2.4,0-4.7,0.8-6.6,2.2c-2.5-9.6-7.6-18.6-14.8-25.6
			c-10.3-10.1-23.9-15.6-38.1-15.3c-14.1,0.3-27.3,6-37.2,16c-9.9,10.1-15.3,23.4-15.3,37.5c0,17.6,14.6,32.6,31.8,32.6
			c5.5,0,10-4.5,10-10s-4.5-10-10-10c-6.3,0-11.8-5.9-11.8-12.6c0-18.2,14.8-33.2,32.9-33.6c8.8-0.2,17.3,3.2,23.8,9.6
			c6.7,6.5,10.5,15.6,10.5,24.8v9.8c0,12.7-4.4,25.2-12.3,35.2c-10.8,13.6-26.9,21.3-44.3,21.3c-0.1,0-0.3,0-0.5,0
			c-17.3-0.1-33.4-8.1-43.9-21.7c-11.6-15-17.7-32.9-17.7-51.9c0-39.8,28.2-74.8,67.1-83.2c24.9-5.3,50.6,0.9,70.6,17.1
			c17.9,14.5,29.2,35.2,31.8,57.7L244.5,249.5L244.5,249.5z M269.5,308.6c0-13.5-3.2-27-9.1-39.1h48.3c21.6,0,39.1,17.6,39.1,39.1
			v0.1c0,21.6-17.6,39.1-39.1,39.1C287,347.8,269.5,330.2,269.5,308.6z M359.3,339.2l18.9,18.9l-20.1,20.1l-18.8-18.8
			C347.4,354.3,354.3,347.4,359.3,339.2L359.3,339.2z M487.8,487.8c-5.5,5.5-14.6,5.5-20.1,0l-95.5-95.5l20.1-20.1l95.5,95.5
			C493.4,473.3,493.4,482.3,487.8,487.8z"/>
		<path id="XMLID_260_" class="st0" d="M71.1,434.8c7.3-7.3,19.2-7.3,26.5,0c15.1,15.1,39.7,15.1,54.8,0c7.3-7.3,19.2-7.3,26.5,0
			c7.3,7.3,17.1,11.4,27.4,11.4s20.1-4,27.4-11.4c7.3-7.3,19.2-7.3,26.5,0c7.3,7.3,17.1,11.4,27.4,11.4s20.1-4,27.4-11.4
			c3.9-3.9,3.9-10.2,0-14.1s-10.2-3.9-14.1,0c-3.5,3.5-8.3,5.5-13.3,5.5s-9.7-2-13.3-5.5c-15.1-15.1-39.7-15.1-54.8,0
			c-3.5,3.5-8.3,5.5-13.3,5.5s-9.7-2-13.3-5.5c-15.1-15.1-39.7-15.1-54.8,0c-3.5,3.5-8.3,5.5-13.3,5.5s-9.7-2-13.3-5.5
			c-15.1-15.1-39.7-15.1-54.8,0c-3.9,3.9-3.9,10.2,0,14.1C60.8,438.7,67.2,438.7,71.1,434.8L71.1,434.8z"/>
		<path id="XMLID_258_" class="st0" d="M362,169.4c-2.6,0-5.2,1.1-7.1,2.9s-2.9,4.4-2.9,7.1c0,2.6,1.1,5.2,2.9,7.1s4.4,2.9,7.1,2.9
			s5.2-1.1,7.1-2.9s2.9-4.4,2.9-7.1c0-2.6-1.1-5.2-2.9-7.1S364.6,169.4,362,169.4z"/>
	</g>
</g>
</svg>
