<?xml version="1.0" encoding="utf-8"?>
<!-- Generator: Adobe Illustrator 24.1.1, SVG Export Plug-In . SVG Version: 6.00 Build 0)  -->
<svg version="1.1" id="Capa_1" xmlns="http://www.w3.org/2000/svg" xmlns:xlink="http://www.w3.org/1999/xlink" x="0px" y="0px"
	 viewBox="0 0 512 512" style="enable-background:new 0 0 512 512;" xml:space="preserve">
<style type="text/css">
	.st0{fill:#FFFFFF;}
</style>
<g>
	<g>
		<path class="st0" d="M306,83c-5.5,0-10,4.5-10,10s4.5,10,10,10s10-4.5,10-10S311.5,83,306,83z"/>
	</g>
</g>
<g>
	<g>
		<path class="st0" d="M206,83c-5.5,0-10,4.5-10,10s4.5,10,10,10s10-4.5,10-10S211.5,83,206,83z"/>
	</g>
</g>
<g>
	<g>
		<path class="st0" d="M473.1,298.9c8.6-12.9,12.9-29,12.9-42.9c0-21-9.3-40.5-25.3-53.7c3.5-8.5,5.3-17.3,5.3-26.3
			c0-27.9-16.3-53.8-40.4-65.9c3.7-30.4-16.2-58.3-45.5-65.4C368.6,18.1,343,0,316,0c-25.1,0-47.6,14.6-60,36
			c-12.4-21.4-34.9-36-60-36c-27,0-52.6,18.1-64.1,44.7c-29.5,7.2-49.2,35.2-45.5,65.4C62.3,122.2,46,148.1,46,176
			c0,9,1.8,17.8,5.3,26.3C35.3,215.5,26,235,26,256c0,14,4.3,30.1,12.9,42.9C30.5,310.7,26,324.6,26,339c0,18.6,7.5,36.4,20.9,49.5
			C40,430,73.1,472,116,472c0.3,0,0.6,0,0.9,0c14.2,24.5,40.6,40,69.1,40c29.7,0,56.2-17.8,70-43.5c13.8,25.7,40.3,43.5,70,43.5
			c28.5,0,54.9-15.5,69.1-40c0.3,0,0.6,0,0.9,0c37.9,0,70-33.4,70-73c0-3.4-0.3-6.8-0.9-10.5c13.4-13.2,20.9-30.9,20.9-49.5
			C486,324.6,481.5,310.7,473.1,298.9z M246,151.4c-5.9-3.4-12.7-5.4-20-5.4c-5.5,0-10,4.5-10,10s4.5,10,10,10c11,0,20,9,20,20
			v190.2c-14.7-16.6-36.1-27.2-60-27.2c-5.5,0-10,4.5-10,10s4.5,10,10,10c33.1,0,60,26.9,60,60c0,34.1-27.5,63-60,63
			c-23.2,0-44.5-13.7-54.3-34.9c-1.8-3.9-5.9-6.2-10.2-5.7c-0.7,0.1-1.4,0.2-2.1,0.3c-28.5,3.9-60.5-28.3-51.8-64.4
			c0.9-3.7-0.4-7.6-3.3-10C52.6,367.6,46,353.7,46,339c0-9.1,2.6-17.9,7.3-25.7c12,9.8,26.9,15.7,42.7,15.7c5.5,0,10-4.5,10-10
			s-4.5-10-10-10c-27.1,0-50-24.8-50-53c0-17.1,8.7-32.9,23.4-42.1c4.5-2.9,6-8.7,3.3-13.4c-4.4-7.8-6.7-16.1-6.7-24.5
			c0-27,22-53,50-53c26.6,0,50,24.8,50,53c0,5.5,4.5,10,10,10s10-4.5,10-10c0-39.6-32.1-73-70-73c-3.3,0-6.7,0.3-10,0.8
			c0-0.3,0-0.5,0-0.8c0-22.3,18.1-40,40-40c10.7,0,20.7,4.2,28.3,11.7c3.9,3.9,10.2,3.9,14.1,0c3.9-3.9,3.9-10.2,0-14.1
			c-9.1-9.1-20.7-14.9-33.2-16.9C164.1,30.6,178.7,20,196,20c26.6,0,50,24.8,50,53V151.4z M416,329c15.8,0,30.7-5.9,42.7-15.7
			c4.8,7.8,7.3,16.7,7.3,25.7c0,14.7-6.6,28.6-18.2,38.3c-2.9,2.4-4.2,6.3-3.3,10c1.1,4.4,1.6,8.1,1.6,11.7
			c0,31-28.1,56.1-53.4,52.7c-0.7-0.1-1.4-0.2-2.1-0.3c-4.3-0.5-8.4,1.8-10.2,5.7c-9.8,21.2-31.1,34.9-54.3,34.9
			c-32.5,0-60-28.9-60-63c0-33.1,26.9-60,60-60c5.5,0,10-4.5,10-10s-4.5-10-10-10c-23.9,0-45.3,10.5-60,27.2V186c0-11,9-20,20-20
			c5.5,0,10-4.5,10-10s-4.5-10-10-10c-7.3,0-14.1,2-20,5.4V73c0-28.2,23.4-53,50-53c17.3,0,31.9,10.6,40.7,23.7
			c-12.5,1.9-24,7.7-33.2,16.9c-3.9,3.9-3.9,10.2,0,14.1c3.9,3.9,10.2,3.9,14.1,0C345.3,67.2,355.3,63,366,63c22,0,40,17.8,40,40
			c0,0.3,0,0.5,0,0.8c-3.3-0.5-6.6-0.8-10-0.8c-37.9,0-70,33.4-70,73c0,5.5,4.5,10,10,10s10-4.5,10-10c0-28.2,23.4-53,50-53
			c28,0,50,26,50,53c0,8.4-2.3,16.6-6.7,24.5c-2.6,4.6-1.2,10.5,3.3,13.4c14.6,9.3,23.4,25,23.4,42.1c0,28.3-22.9,53-50,53
			c-5.5,0-10,4.5-10,10S410.5,329,416,329z"/>
	</g>
</g>
<g>
	<g>
		<path class="st0" d="M223.5,214.1c-3.7-4.1-10-4.5-14.1-0.8C177.3,242,126,219,126,176c0-5.5-4.5-10-10-10s-10,4.5-10,10
			c0,34.7,25.4,63.6,58.6,69.1c-3.9,12.1-15.2,20.9-28.6,20.9c-5.5,0-10,4.5-10,10s4.5,10,10,10c24.4,0,44.7-17.5,49.1-40.6
			c13.9-1.8,27-7.8,37.6-17.2C226.8,224.5,227.1,218.2,223.5,214.1z"/>
	</g>
</g>
<g>
	<g>
		<path class="st0" d="M116,389c-5.5,0-10,4.5-10,10s4.5,10,10,10c26.6,0,50,24.8,50,53c0,5.5,4.5,10,10,10s10-4.5,10-10
			C186,422.4,153.9,389,116,389z"/>
	</g>
</g>
<g>
	<g>
		<path class="st0" d="M196,309c-33.9,0-63,18.6-78.3,45.6c-2.7,4.8-1,10.9,3.8,13.6c4.8,2.7,10.9,1,13.6-3.8
			C147,343.4,169.7,329,196,329c5.5,0,10-4.5,10-10S201.5,309,196,309z"/>
	</g>
</g>
<g>
	<g>
		<path class="st0" d="M376,266c-13.4,0-24.8-8.8-28.6-20.9c33.2-5.5,58.6-34.3,58.6-69.1c0-5.5-4.5-10-10-10s-10,4.5-10,10
			c0,27.6-22.4,50-50,50c-12.3,0-24.2-4.5-33.3-12.7c-4.1-3.7-10.4-3.3-14.1,0.8c-3.7,4.1-3.3,10.4,0.8,14.1
			c10.6,9.5,23.7,15.4,37.6,17.2c4.4,23.1,24.7,40.6,49.1,40.6c5.5,0,10-4.5,10-10S381.5,266,376,266z"/>
	</g>
</g>
<g>
	<g>
		<path class="st0" d="M396,389c-37.9,0-70,33.4-70,73c0,5.5,4.5,10,10,10s10-4.5,10-10c0-28.2,23.4-53,50-53c5.5,0,10-4.5,10-10
			S401.5,389,396,389z"/>
	</g>
</g>
<g>
	<g>
		<path class="st0" d="M394.3,354.6C379,327.6,350,309,316,309c-5.5,0-10,4.5-10,10s4.5,10,10,10c26.3,0,49,14.4,60.9,35.5
			c2.7,4.8,8.8,6.5,13.6,3.8C395.3,365.5,397,359.4,394.3,354.6z"/>
	</g>
</g>
</svg>
