<svg id="Layer_3" enable-background="new 0 0 64 64" height="512" viewBox="0 0 64 64" width="512" xmlns="http://www.w3.org/2000/svg"><g><path d="m4 6c-1.105 0-2 .895-2 2v34c0 1.105.895 2 2 2h50c1.105 0 2-.895 2-2v-34c0-1.105-.895-2-2-2z" fill="#758190"/><path d="m56 14v-6c0-1.105-.895-2-2-2h-50c-1.105 0-2 .895-2 2v6z" fill="#a8b0bc"/><path d="m9 10c-1.105 0-2-.895-2-2v-4c0-1.105.895-2 2-2 1.105 0 2 .895 2 2v4c0 1.105-.895 2-2 2z" fill="#758190"/><path d="m9 4c0-.738-.405-1.376-1-1.723-.595.347-1 .985-1 1.723v4c0 .738.405 1.376 1 1.723.595-.347 1-.985 1-1.723z" fill="#8892a0"/><path d="m19 10c-1.105 0-2-.895-2-2v-4c0-1.105.895-2 2-2 1.105 0 2 .895 2 2v4c0 1.105-.895 2-2 2z" fill="#758190"/><path d="m29 10c-1.105 0-2-.895-2-2v-4c0-1.105.895-2 2-2 1.105 0 2 .895 2 2v4c0 1.105-.895 2-2 2z" fill="#758190"/><path d="m39 10c-1.105 0-2-.895-2-2v-4c0-1.105.895-2 2-2 1.105 0 2 .895 2 2v4c0 1.105-.895 2-2 2z" fill="#758190"/><path d="m49 10c-1.105 0-2-.895-2-2v-4c0-1.105.895-2 2-2 1.105 0 2 .895 2 2v4c0 1.105-.895 2-2 2z" fill="#758190"/><g fill="#e7e4dd"><path d="m7 18h4v4h-4z"/><path d="m17 18h4v4h-4z"/><path d="m27 18h4v4h-4z"/><path d="m7 26h4v4h-4z"/><path d="m17 26h4v4h-4z"/><path d="m27 26h4v4h-4z"/><path d="m7 34h4v4h-4z"/><path d="m17 34h4v4h-4z"/><path d="m37 18h4v4h-4z"/><path d="m47 18h4v4h-4z"/></g><g><path d="m37.999 31.999c-.264 0-.519-.105-.707-.293l-2-2 1.415-1.415 1.21 1.21 3.302-4.127 1.562 1.249-4 5c-.178.223-.441.358-.726.374-.019.001-.037.002-.056.002z" fill="#96cc7f"/></g><path d="m32.64 34.767-1.281-1.537-2.359 1.967-2.36-1.967-1.281 1.537 2.079 1.732-2.079 1.731 1.281 1.537 2.36-1.967 2.359 1.967 1.281-1.537-2.079-1.731z" fill="#e47c6e"/><path d="m54.278 33.952 1.098.941c2.13 1.826 2.744 4.867 1.49 7.376-.57 1.139-.866 2.393-.866 3.666 0 3.104 1.754 5.942 4.53 7.33l.103.051c.838.419 1.367 1.275 1.367 2.212 0 1.365-1.107 2.472-2.472 2.472h-21.056c-1.365 0-2.472-1.107-2.472-2.472 0-.936.529-1.792 1.367-2.211l.103-.051c2.777-1.388 4.53-4.226 4.53-7.33 0-1.272-.296-2.527-.865-3.665-1.255-2.509-.64-5.55 1.49-7.376l1.098-.941c1.469-1.261 3.341-1.954 5.277-1.954 1.936 0 3.808.693 5.278 1.952z" fill="#f2c351"/><path d="m53 58c0 2.209-1.791 4-4 4s-4-1.791-4-4" fill="#f7d881"/><circle cx="49" cy="29" fill="#f2c351" r="3"/><path d="m50 33.5c0-.482-.015-.96-.04-1.436-.318-.038-.637-.064-.96-.064-1.936 0-3.808.693-5.278 1.952l-1.098.941c-2.13 1.826-2.744 4.867-1.49 7.376.57 1.139.866 2.393.866 3.666 0 3.104-1.754 5.942-4.531 7.331l-.103.051c-.837.418-1.366 1.274-1.366 2.211 0 .427.118.822.308 1.172 8.163-4.516 13.692-13.211 13.692-23.2z" fill="#f7d881"/><path d="m48.919 26.008c-1.619.044-2.919 1.363-2.919 2.992 0 1.657 1.343 3 3 3 .331 0 .644-.067.943-.166-.125-2.011-.475-3.961-1.024-5.826z" fill="#f7d881"/><path d="m19 4c0-.738-.405-1.376-1-1.723-.595.347-1 .985-1 1.723v4c0 .738.405 1.376 1 1.723.595-.347 1-.985 1-1.723z" fill="#8892a0"/><path d="m29 4c0-.738-.405-1.376-1-1.723-.595.347-1 .985-1 1.723v4c0 .738.405 1.376 1 1.723.595-.347 1-.985 1-1.723z" fill="#8892a0"/><path d="m39 4c0-.738-.405-1.376-1-1.723-.595.347-1 .985-1 1.723v4c0 .738.405 1.376 1 1.723.595-.347 1-.985 1-1.723z" fill="#8892a0"/><path d="m49 4c0-.738-.405-1.376-1-1.723-.595.347-1 .985-1 1.723v4c0 .738.405 1.376 1 1.723.595-.347 1-.985 1-1.723z" fill="#8892a0"/><g><path d="m10.999 16.999h-3.999c-.553 0-1 .447-1 1v3.999c0 .553.447 1 1 1h3.999c.553 0 1-.447 1-1v-3.999c0-.553-.447-1-1-1zm-1 3.999h-1.999v-1.999h1.999z"/><path d="m20.999 16.999h-3.999c-.553 0-1 .447-1 1v3.999c0 .553.447 1 1 1h3.999c.553 0 1-.447 1-1v-3.999c0-.553-.447-1-1-1zm-1 3.999h-1.999v-1.999h1.999z"/><path d="m27 22.998h3.999c.553 0 1-.447 1-1v-3.999c0-.553-.447-1-1-1h-3.999c-.553 0-1 .447-1 1v3.999c0 .553.447 1 1 1zm1-3.999h1.999v1.999h-1.999z"/><path d="m10.999 24.999h-3.999c-.553 0-1 .447-1 1v3.999c0 .553.447 1 1 1h3.999c.553 0 1-.447 1-1v-3.999c0-.553-.447-1-1-1zm-1 3.999h-1.999v-1.999h1.999z"/><path d="m20.999 24.999h-3.999c-.553 0-1 .447-1 1v3.999c0 .553.447 1 1 1h3.999c.553 0 1-.447 1-1v-3.999c0-.553-.447-1-1-1zm-1 3.999h-1.999v-1.999h1.999z"/><path d="m27 30.998h3.999c.553 0 1-.447 1-1v-3.999c0-.553-.447-1-1-1h-3.999c-.553 0-1 .447-1 1v3.999c0 .553.447 1 1 1zm1-3.999h1.999v1.999h-1.999z"/><path d="m10.999 32.999h-3.999c-.553 0-1 .447-1 1v3.999c0 .553.447 1 1 1h3.999c.553 0 1-.447 1-1v-3.999c0-.553-.447-1-1-1zm-1 3.999h-1.999v-1.999h1.999z"/><path d="m20.999 32.999h-3.999c-.553 0-1 .447-1 1v3.999c0 .553.447 1 1 1h3.999c.553 0 1-.447 1-1v-3.999c0-.553-.447-1-1-1zm-1 3.999h-1.999v-1.999h1.999z"/><path d="m37 22.998h3.999c.553 0 1-.447 1-1v-3.999c0-.553-.447-1-1-1h-3.999c-.553 0-1 .447-1 1v3.999c0 .553.447 1 1 1zm1-3.999h1.999v1.999h-1.999z"/><path d="m47 22.998h3.999c.553 0 1-.447 1-1v-3.999c0-.553-.447-1-1-1h-3.999c-.553 0-1 .447-1 1v3.999c0 .553.447 1 1 1zm1-3.999h1.999v1.999h-1.999z"/><path d="m41.219 25.374-3.302 4.127-1.21-1.21-1.415 1.415 2 2c.188.188.443.293.707.293.019 0 .037-.001.056-.002.284-.016.548-.151.726-.374l4-5z"/><path d="m31.359 33.23-2.359 1.967-2.36-1.967-1.281 1.537 2.079 1.732-2.079 1.731 1.281 1.537 2.36-1.967 2.359 1.967 1.281-1.537-2.079-1.731 2.079-1.732z"/><path d="m61.083 52.423-.106-.053c-2.453-1.228-3.979-3.693-3.979-6.436 0-1.111.264-2.224.761-3.22 1.245-2.49.9-5.412-.76-7.541v-27.175c0-1.653-1.346-3-3-3h-2v-.999c0-1.654-1.346-3-3.001-3-1.653 0-2.998 1.346-2.998 3v1h-4.001v-1c0-1.654-1.346-3-3.001-3-1.653 0-2.998 1.346-2.998 3v1h-4.001v-1c0-1.654-1.346-3-3.001-3-1.653 0-2.998 1.346-2.998 3v1h-4.001v-1c0-1.654-1.346-3-3.001-3-1.653 0-2.998 1.346-2.998 3v1h-4.001v-1c0-1.654-1.346-3-3.001-3-1.653 0-2.998 1.346-2.998 3v1h-2.001c-1.653 0-3 1.346-3 3v33.999c0 1.654 1.347 3 3 3h36.934c.041.311.067.623.067.937 0 2.742-1.524 5.209-3.982 6.437l-.099.051c-1.185.592-1.92 1.781-1.92 3.104 0 1.915 1.558 3.474 3.473 3.474l5.629-.001c.465 2.279 2.484 3.999 4.899 3.999s4.434-1.72 4.898-3.999l5.628-.001c1.915 0 3.472-1.557 3.472-3.472 0-1.324-.734-2.513-1.915-3.104zm-13.083-48.424c0-.552.448-1 1-1 .551 0 .999.448.999 1v4.001c0 .551-.448.998-.999.998h-.002c-.551 0-.998-.447-.998-.998zm-10 0c0-.552.448-1 1-1 .551 0 .999.448.999 1v4.001c0 .551-.448.998-.999.998h-.002c-.551 0-.998-.447-.998-.998zm-10 0c0-.552.448-1 1-1 .551 0 .999.448.999 1v4.001c0 .551-.448.998-.999.998h-.002c-.551 0-.998-.447-.998-.998zm-10 0c0-.552.448-1 1-1 .551 0 .999.448.999 1v4.001c0 .551-.448.998-.999.998h-.002c-.551 0-.998-.447-.998-.998zm-10 0c0-.552.448-1 1-1 .551 0 .999.448.999 1v4.001c0 .551-.448.998-.999.998h-.002c-.551 0-.998-.447-.998-.998zm-4.001 3h2.001v1.001c0 1.653 1.346 2.998 3 2.998 1.653 0 2.999-1.345 2.999-2.998v-1.002h4.001v1.002c0 1.653 1.346 2.998 3 2.998 1.653 0 2.999-1.345 2.999-2.998v-1.002h4.001v1.002c0 1.653 1.346 2.998 3 2.998 1.653 0 2.999-1.345 2.999-2.998v-1.002h4.001v1.002c0 1.653 1.346 2.998 3 2.998 1.653 0 2.999-1.345 2.999-2.998v-1.002h4.001v1.002c0 1.653 1.346 2.998 3 2.998 1.653 0 2.999-1.345 2.999-2.998v-1.002h2c.552 0 1 .449 1 1v5.001h-52v-5c0-.552.449-1 1-1zm0 35.999c-.551 0-1-.448-1-1v-27h52v18.255l-.071-.061c-.851-.729-1.823-1.285-2.862-1.657.574-.692.933-1.569.933-2.536 0-2.206-1.794-4-3.999-4-2.206 0-4 1.794-4 4 0 .968.359 1.844.933 2.536-1.04.372-2.013.928-2.863 1.657l-1.098.94c-2.482 2.129-3.195 5.658-1.733 8.582.046.092.079.189.121.283h-36.361zm45.001-12c-1.104 0-2-.896-2-1.999 0-1.104.896-2 2-2 1.103 0 1.999.896 1.999 2 0 1.103-.896 1.999-1.999 1.999zm0 30c-1.302 0-2.401-.838-2.815-1.999h5.63c-.414 1.161-1.514 1.999-2.815 1.999zm10.526-4-21.054.002c-.812 0-1.473-.661-1.473-1.474 0-.561.312-1.064.817-1.317l.099-.051c3.137-1.567 5.085-4.719 5.085-8.223 0-1.42-.337-2.842-.973-4.113-1.051-2.103-.538-4.64 1.247-6.17l1.098-.94c1.287-1.105 2.931-1.712 4.628-1.712h.004c1.693 0 3.335.607 4.622 1.711l1.098.94c1.785 1.53 2.298 4.067 1.247 6.17-.636 1.271-.973 2.693-.973 4.113 0 3.505 1.948 6.656 5.081 8.223l.106.053c.501.251.812.756.812 1.316.001.812-.659 1.472-1.471 1.472z"/></g></g></svg>