<?xml version="1.0" encoding="utf-8"?>
<!-- Generator: Adobe Illustrator 24.1.1, SVG Export Plug-In . SVG Version: 6.00 Build 0)  -->
<svg version="1.1" id="Layer_1" xmlns="http://www.w3.org/2000/svg" xmlns:xlink="http://www.w3.org/1999/xlink" x="0px" y="0px"
	 viewBox="0 0 512 512" style="enable-background:new 0 0 512 512;" xml:space="preserve">
<style type="text/css">
	.st0{fill:#FF7E72;}
	.st1{fill:#020202;}
</style>
<g id="Outline">
	<path class="st0" d="M352,30.4v-16c-5.8,0-11.5,0.4-17.2,1.3l2.4,15.8C342.1,30.8,347,30.4,352,30.4z"/>
	<path class="st0" d="M91,59c38.1-38.1,99.8-38.1,137.9,0l0,0l21.4,21.4c3.1,3.1,8.2,3.1,11.3,0l0,0L283,59
		c11-11.1,24.5-19.3,39.4-24l-4.8-15.3c-17.3,5.5-33,15.1-45.9,28L256,63.4l-15.7-15.7C196,3.4,124.1,3.4,79.7,47.7l0,0
		c-3.6,3.6-7,7.4-10.1,11.5l12.7,9.7C85,65.4,87.9,62.1,91,59z"/>
	<path class="st1" d="M482.5,320.8c18.1-18.1,18.1-47.5,0-65.6L411.3,184c30.9-32.7,29.4-84.3-3.3-115.3
		c-32.1-30.3-82.4-29.6-113.6,1.6L256,108.6l-38.3-38.3c-31.8-31.9-83.4-31.9-115.3-0.1c-31.2,31.2-32,81.6-1.6,113.7l-71.2,71.2
		c-18.1,18.1-18.1,47.5,0,65.6L80,371.2v4.8h-8c-4.4,0-8,3.6-8,8v80h16v-72h144v72h16v-80c0-4.4-3.6-8-8-8h-8v-32
		c0-23.4-16.9-43.4-40-47.3v-29.5l24.9,24.9c26,26,68.2,26,94.2,0l24.9-24.9v29.5c-23.1,3.9-40,23.9-40,47.3v32h-8c-4.4,0-8,3.6-8,8
		v80h16v-72h144v72h16v-80c0-4.4-3.6-8-8-8h-8v-4.8L482.5,320.8z M208,344v32H96v-8.1c0-2.1-0.8-4.2-2.3-5.7l-52.8-52.8
		c-11.8-11.9-11.8-31.1,0-43l71.2-71.2l12.4,12.4c-3,5-4.5,10.6-4.5,16.4v23.9L88.8,279l11.3,11.3l19.8-19.8V304h16v-80
		c0-8.8,7.2-16,16-16.1l0,0c8.9,0,16.1,7.2,16.1,16.1v80c0,4.4,3.6,8,8,8C193.6,312,207.9,326.3,208,344z M291.8,280.8
		c-19.8,19.7-51.8,19.7-71.6,0L184,244.6V224c0-17.7-14.4-32.1-32.1-32.1h-0.1c-5.7,0-11.2,1.5-16.1,4.4l-22.1-22.1
		c-25.8-25.4-26.1-66.9-0.7-92.7s66.9-26.1,92.7-0.7c0.2,0.2,0.5,0.5,0.7,0.7l44,44c3.1,3.1,8.2,3.1,11.3,0l0,0l44-44
		c25.5-25.7,67-25.8,92.7-0.3s25.8,67,0.3,92.7c-0.1,0.1-0.2,0.2-0.3,0.3l-22.1,22.1c-4.9-2.9-10.4-4.4-16.1-4.4H360
		c-17.7,0-32.1,14.4-32.1,32.1v20.6L291.8,280.8z M304,376v-32c0-17.7,14.3-32,32-32c4.4,0,8-3.6,8-8v-80c0-8.9,7.2-16.1,16.1-16.1
		l0,0l0,0c8.8,0,16,7.2,16,16.1v80h16v-33.5l19.8,19.8l11.3-11.3l-31.1-31.1V224c0-5.8-1.6-11.4-4.5-16.4l12.4-12.4l71.2,71.2
		c11.8,11.9,11.8,31.1,0,43l-52.8,52.8c-1.5,1.5-2.3,3.5-2.3,5.7v8.1L304,376L304,376z"/>
	<g>
		<path class="st0" d="M294.1,278.5l-2.3,2.3c-19.8,19.7-51.8,19.7-71.6,0l-1.9-1.9l-0.7,0.7L168,230v21.5l16,16.1v-0.3l24.9,24.9
			c25.9,25.8,67.7,26,93.8,0.4l0.5-1.4l40.9-41.1v-21.2l-49.8,49.8L294.1,278.5z"/>
		<path class="st0" d="M407.9,68.7c-32.1-30.3-82.4-29.6-113.6,1.6L256,108.6l-38.3-38.3c-31.8-31.9-83.4-31.9-115.3-0.1
			c-31.2,31.2-32,81.6-1.6,113.7l18.7,18.7l5,5l0,0l12.1,12.1c1.4-5.2,5.3-9.3,10.4-11L107.3,169l1-1C88,142.5,89.5,105.4,113,81.6
			c25.4-25.8,66.9-26.1,92.7-0.7c0.2,0.2,0.5,0.5,0.7,0.7l44,44c3.1,3.1,8.2,3.1,11.3,0l0,0l44-44c25.5-25.7,67-25.8,92.7-0.3
			c23.7,23.5,25.6,60.5,5.9,86.3l0.5,0.5l-40.4,40.4c5.1,1.4,9.2,5.2,10.9,10.2l42.7-42.9C441.7,143.2,438.1,97.1,407.9,68.7z"/>
	</g>
	<path d="M388.9,209.9c0,0-5.7-10.5-12.6-13.6s-13.7,11.8-13.7,11.8s11.7,5.3,12.7,10.6S388.9,209.9,388.9,209.9z"/>
	<path d="M122.8,210c0,0,5.7-10.5,12.6-13.6c7-3,13.7,11.8,13.7,11.8s-11.7,5.3-12.7,10.6S122.8,210,122.8,210z"/>
	<rect x="168" y="227.1" width="16" height="49.6"/>
	<rect x="328" y="224" width="16" height="52.7"/>
</g>
</svg>
