<?xml version="1.0" encoding="utf-8"?>
<!-- Generator: Adobe Illustrator 24.1.1, SVG Export Plug-In . SVG Version: 6.00 Build 0)  -->
<svg version="1.1" id="Layer_1" xmlns="http://www.w3.org/2000/svg" xmlns:xlink="http://www.w3.org/1999/xlink" x="0px" y="0px"
	 viewBox="0 0 512 512" style="enable-background:new 0 0 512 512;" xml:space="preserve">
<style type="text/css">
	.st0{fill:#FFFFFF;}
</style>
<g id="Out_line">
	<path class="st0" d="M428.1,234.8l59.7-114c9.8-18.8,2.6-42-16.2-51.8c-18.8-9.8-42-2.6-51.8,16.2l-59.7,114
		c-5.8,11-5.9,24.2-0.2,35.2l-18.5,35.3l-25.9-12.9c-3.8-1.9-8.4-0.5-10.5,3.2l-49.1,86c-7.4,13-11.4,27.6-11.6,42.5
		c-6.4-3-13.3-4.5-20.4-4.5c-0.3,0-0.7,0-1,0c-3.7-14.1-16.4-24-31-24v-64h8c48.6-0.1,87.9-39.4,88-88v-32c0-13.2-10.8-24-24-24h-62
		c-28.5-0.1-55.3,13.4-72.3,36.4c-9-2.9-18.3-4.4-27.7-4.4H40c-13.2,0-24,10.8-24,24v32c0.1,48.6,39.4,87.9,88,88h40v33
		c-5.5,1.4-10.6,4.3-14.6,8.4c-16.9-5.2-34.8,4.3-40,21.2c-0.3,0.8-0.5,1.7-0.7,2.6c-17-4.8-34.7,5-39.5,22
		c-0.1,0.3-0.1,0.5-0.2,0.8H32v16h24c4.4,0,8-3.6,8-8c0,0,0,0,0,0c0-8.8,7.2-16,16-16s16,7.2,16,16h16c0-7.6-2.7-15-7.7-20.7
		c-1.8-8.6,3.7-17.1,12.4-18.9c1.1-0.2,2.2-0.3,3.3-0.3c0.3,0,0.7,0,1,0c8.4,0.5,15,7.5,15,16h16c0-8-3-15.7-8.4-21.6
		c5.9-3.7,13.5-3.1,18.8,1.4c-1.6,3.9-2.4,8-2.4,12.1h16c0-8.8,7.2-16,16-16c6.9,0,13.1,4.5,15.2,11c-18.7,7-31.2,24.9-31.2,45h16
		c0-17.7,14.3-32,32-32c9.6,0,18.8,4.3,24.8,11.8c-10.4,5.6-16.8,16.4-16.8,28.2h16c0-8.8,7.2-16,16-16c8.8,0,16,7.2,16,16h16
		c0-4.6-1-9.2-2.9-13.4c6.9-3.5,15-3.5,21.9,0c-1.9,4.2-2.9,8.7-2.9,13.4h16c0-8.8,7.2-16,16-16s16,7.2,16,16h16
		c0-4.2-0.8-8.3-2.4-12.1c6.7-5.7,16.8-5,22.5,1.7c2.5,2.9,3.9,6.6,3.9,10.4c0,4.4,3.6,8,8,8c0,0,0,0,0,0h64v-16h-57
		c-4.4-17.1-21.9-27.4-39-23c-2.2,0.6-4.3,1.4-6.3,2.4c1.9-3.1,3.7-6.3,5.3-9.6l40.3-86.4c1.8-3.9,0.2-8.6-3.7-10.5l-30.1-15.1
		l18.3-34.9C411.8,253.1,422.4,245.7,428.1,234.8z M176,364.3c-1.4,0.8-2.7,1.7-4,2.7c-3.5-2.8-7.6-4.9-12-6v-41c0-4.4-3.6-8-8-8
		c0,0,0,0,0,0h-16c-39.7,0-72-32.3-72-72v-8H48v8c0,26.3,11.8,51.2,32.1,67.9C51.3,297.7,32,270.5,32,240v-32c0-4.4,3.6-8,8-8h62
		c40.8,0,74,33.2,74,74V364.3z M144.9,194.9c14-17.1,35-27,57.1-26.9h62c4.4,0,8,3.6,8,8v32c0,30.5-19.3,57.8-48.1,67.9
		c20.3-16.7,32.1-41.6,32.1-67.9v-8h-16v8c-0.1,30.5-19.3,57.7-48,67.9V274C192,241,173.9,210.7,144.9,194.9z M397.5,315.7l-37,79.4
		c-2.3,5-5.2,9.6-8.6,14c-9.2-2.3-18.9-0.5-26.6,5.1c-6.4-4-13.7-6.1-21.2-6.1c-0.4,0-0.7,0-1.1,0l24.1-44.2l-14-7.7l-31.2,57.2
		c-4.8-3.2-10.4-5.1-16.2-5.4c-1.2-2.2-2.7-4.2-4.2-6.2c-2.8-16.5,0.1-33.4,8.4-47.9l45.4-79.4L334,284l-15.1,28.9
		c-5.7,10.9-1.5,24.4,9.4,30.2c10.9,5.7,24.4,1.5,30.2-9.4c0,0,0,0,0,0L374,304L397.5,315.7z M344.3,326.2c-1.1,2.1-3.3,3.4-5.7,3.4
		c-1.2,0-2.5-0.4-3.5-1.1c-2.7-1.8-3.6-5.3-2.1-8.2l38-72.6c2.4,1.8,5.1,3.4,7.9,4.6c1.1,0.5,2.2,0.9,3.3,1.3L344.3,326.2z
		 M385.3,237.6c-11.4-4.9-16.6-18-11.7-29.4c0.2-0.5,0.5-1,0.7-1.6l59.7-114c5.5-10.3,17.9-14.7,28.6-10.2
		c11.4,4.9,16.6,18,11.7,29.4c-0.2,0.5-0.5,1-0.7,1.6l-59.7,114C408.5,237.7,396.1,242.1,385.3,237.6L385.3,237.6z"/>
</g>
</svg>
