<?xml version="1.0" encoding="utf-8"?>
<!-- Generator: Adobe Illustrator 22.0.1, SVG Export Plug-In . SVG Version: 6.00 Build 0)  -->
<svg version="1.1" id="Capa_1" xmlns="http://www.w3.org/2000/svg" xmlns:xlink="http://www.w3.org/1999/xlink" x="0px" y="0px"
	 viewBox="0 0 512 512" style="enable-background:new 0 0 512 512;" xml:space="preserve">
<style type="text/css">
	.st0{fill:#FFD301;}
</style>
<g>
	<path class="st0" d="M330,290c80,0,145-65,145-145S410,0,330,0S185,65,185,145S250.1,290,330,290z M330,30c63.4,0,115,51.6,115,115
		s-51.6,115-115,115s-115-51.6-115-115S266.6,30,330,30z"/>
	<path class="st0" d="M350.7,126.7c7.6,3.3,16.4-0.1,19.8-7.7c1.3-3,4.3-4.9,7.5-4.9c3.3,0,6.2,1.9,7.5,4.9c2.5,5.6,8,9,13.8,9
		c2,0,4-0.4,6-1.3c7.6-3.3,11.1-12.2,7.7-19.8C406.9,93,393.2,84,378,84s-28.9,9-35,22.9C339.7,114.5,343.1,123.4,350.7,126.7z"/>
	<path class="st0" d="M254.7,126.7c7.6,3.3,16.4-0.1,19.8-7.7c1.3-3,4.3-4.9,7.5-4.9s6.2,1.9,7.5,4.9c2.5,5.6,8,9,13.8,9
		c2,0,4-0.4,6-1.3c7.6-3.3,11.1-12.2,7.7-19.8C310.9,93,297.2,84,282,84s-28.9,9-35,22.9C243.7,114.5,247.1,123.4,254.7,126.7z"/>
	<path d="M483.9,332.8c-6-10.4-15.7-17.9-27.3-21c-11.6-3.1-23.7-1.5-34.1,4.5l-83.3,48.1c0-7.8-2-15.6-6-22.6
		c-6-10.4-15.7-17.9-27.3-21l-93.6-25.1c-19.4-5.2-39.6-2.5-56.9,7.5L29.6,375.9c-7.2,4.1-9.6,13.3-5.5,20.5l62.4,108.1
		c2.8,4.8,7.8,7.5,13,7.5c2.5,0,5.1-0.6,7.5-2l56.7-32.7l121.3,7.8c14.8,1,29.5-2.5,42.3-9.9l140.2-80.9
		C488.9,381.9,496.3,354.3,483.9,332.8z M459.9,380.2l-140.2,80.9c-7.7,4.5-16.5,6.5-25.4,5.9l-125.7-8.1c-3-0.2-5.9,0.5-8.5,2
		l-57.3,36.2L43.7,392.6l126.6-73.3c10.4-6,22.5-7.6,34.1-4.5l93.6,25.1c3.9,1,17.4,6.7,20.7,9.1c3.6,2.6,7.9,10.3,6.9,14.3
		c-2,8.7-8,16.3-8,16.3s-9.3,10.3-27.4,4L217,363.8c-8-2.1-16.2-2-18.4,6c-2.1,8,3.6,12.6,11.6,14.8l73.3,19.6l0,0l6.3,1.7
		c14.2,3.8,27.5-6.2,40.2-13.6l104.7-62c7.2-4.1,25.3-7.7,36.3,10.3C483.7,360.2,467.1,376.1,459.9,380.2L459.9,380.2z"/>
	<path class="st0" d="M280.3,168.6c-3.6-7.5-12.5-10.7-20-7.1c-7.5,3.6-10.7,12.5-7.1,20c14,29.5,44.2,48.6,76.8,48.6
		s62.8-19.1,76.8-48.6c3.6-7.5,0.4-16.4-7.1-20s-16.4-0.4-20,7.1c-9.1,19.1-28.6,31.4-49.7,31.4S289.4,187.7,280.3,168.6
		L280.3,168.6z"/>
</g>
</svg>
