<?xml version="1.0" encoding="utf-8"?>
<!-- Generator: Adobe Illustrator 24.1.1, SVG Export Plug-In . SVG Version: 6.00 Build 0)  -->
<svg version="1.1" id="Capa_1" xmlns="http://www.w3.org/2000/svg" xmlns:xlink="http://www.w3.org/1999/xlink" x="0px" y="0px"
	 viewBox="0 0 368.8 368.8" style="enable-background:new 0 0 368.8 368.8;" xml:space="preserve">
<style type="text/css">
	.st0{fill:#FFFFFF;}
</style>
<g>
	<g>
		<path class="st0" d="M368.8,184.4c0-50.9-20.6-97-54-130.4S235.3,0,184.4,0S87.4,20.6,54,54S0,133.5,0,184.4s20.6,97,54,130.4
			s79.5,54,130.4,54s97-20.6,130.4-54S368.8,235.3,368.8,184.4z M184.4,348.4c-45.3,0-86.3-18.4-116-48.1s-48.1-70.7-48.1-116
			s18.4-86.3,48.1-116s70.7-48.1,116-48.1s86.3,18.4,116,48.1s48.1,70.7,48.1,116s-18.4,86.3-48.1,116S229.7,348.4,184.4,348.4z"/>
	</g>
</g>
<g>
	<g>
		<path class="st0" d="M330.1,184.1c0-5.7-4.5-10.2-10.2-10.2H184.1l-135.8,0c-5.7,0-10.2,4.5-10.2,10.2c0,40.2,16.1,76.7,42.4,103
			c26.3,26.3,62.8,42.4,103,42.4s76.7-16.1,103-42.4C313.7,261.1,330.1,224.8,330.1,184.1z M184.4,310
			c-34.8-0.3-65.9-14.4-88.5-37.1c-20.4-20.4-33.9-48.1-36.2-78.6h125l125,0c-2.3,30.5-15.8,58.3-36.2,78.6
			C250.3,295.6,219.2,309.7,184.4,310z"/>
	</g>
</g>
<g>
	<g>
		<path class="st0" d="M168.3,124.7c0-11.9-4.5-22.6-12.4-30.5c-7.6-7.6-18.4-12.7-30.3-12.7s-22.3,4.8-30.3,12.7
			c-7.6,7.6-12.7,18.4-12.7,30.3c0,5.7,4.5,10.2,10.2,10.2c5.7,0.6,10.2-4,10.2-9.6c0-6.2,2.3-11.9,6.5-16.1
			c4.2-4.2,9.6-6.8,15.8-6.8c6.2,0,11.6,2.5,15.8,6.8c4.2,4.2,6.8,9.6,6.8,15.8c0,5.7,4.5,10.2,10.2,10.2
			C163.8,134.9,168.3,130.4,168.3,124.7z"/>
	</g>
</g>
<g>
	<g>
		<path class="st0" d="M286.5,124.7c0-11.9-4.5-22.6-12.4-30.5c-7.6-7.6-18.4-12.7-30.3-12.7c-11.9,0-22.3,4.8-30.3,12.7
			c-7.6,7.6-12.7,18.4-12.7,30.3c-0.6,6.2,4,10.7,9.6,10.7c5.7,0,10.2-4.5,10.2-10.2c0-6.2,2.5-12.2,6.5-16.1c4-4,9.9-6.5,16.1-6.5
			c6.2,0,11.9,2.3,16.1,6.5c4.2,4.2,6.8,9.6,6.8,15.8c0,5.7,4.5,10.2,10.2,10.2S286.5,130.4,286.5,124.7z"/>
	</g>
</g>
</svg>
