<?xml version="1.0" encoding="utf-8"?>
<!-- Generator: Adobe Illustrator 24.1.1, SVG Export Plug-In . SVG Version: 6.00 Build 0)  -->
<svg version="1.1" id="Capa_1" xmlns="http://www.w3.org/2000/svg" xmlns:xlink="http://www.w3.org/1999/xlink" x="0px" y="0px"
	 viewBox="0 0 512 512" style="enable-background:new 0 0 512 512;" xml:space="preserve">
<style type="text/css">
	.st0{fill:#FFFFFF;}
</style>
<g id="XMLID_868_">
	<path id="XMLID_908_" class="st0" d="M0,0.3v511.5h512V0.3L0,0.3z M30.1,30.4h210.8v210.3H30.1V30.4z M240.9,481.6H30.1V271.3
		h210.8V481.6z M481.9,481.6H271.1V271.3h210.8V481.6z M271.1,240.7V30.4h210.8v210.3H271.1z"/>
	<path id="XMLID_967_" class="st0" d="M138.9,59.8h-28.6V90h28.6c5.3,0,9.5,4.3,9.5,9.5s-4.3,9.5-9.5,9.5h-28.6v47.4h30.1v-17.3
		c21.2-0.8,38.2-18.3,38.2-39.6C178.6,77.6,160.8,59.8,138.9,59.8z"/>
	<path id="XMLID_968_" class="st0" d="M110.3,183.8h30.1v27.2h-30.1V183.8z"/>
	<path id="XMLID_969_" class="st0" d="M379.5,381.5c21.2-0.8,38.2-18.3,38.2-39.6c0-21.9-17.8-39.7-39.7-39.7h-28.6v30.1H378
		c5.3,0,9.5,4.3,9.5,9.5s-4.3,9.5-9.5,9.5h-28.6v47.4h30.1V381.5z"/>
	<path id="XMLID_970_" class="st0" d="M349.4,426.2h30.1v27.2h-30.1V426.2z"/>
	<path id="XMLID_973_" class="st0" d="M87.8,394.9l-6.6,62.3l54.4-25.5l54.4,25.5l-6.6-62.3l40.9-40l-56.1-14.7l-32.6-46.8
		L103,340.1l-56.1,14.7L87.8,394.9z M121.4,366.4l14.2-20.4l14.2,20.4l15.4,4.1l-13.4,13.1l2.5,23.6l-18.7-8.8l-18.7,8.8l2.5-23.6
		l-13.4-13.1L121.4,366.4z"/>
	<path id="XMLID_987_" class="st0" d="M465.1,114L409,99.3l-32.6-46.8l-32.6,46.8L287.8,114l40.9,40l-6.6,62.3l54.4-25.5l54.4,25.5
		l-6.6-62.3L465.1,114z M395.2,166.3l-18.7-8.8l-18.7,8.8l2.5-23.6l-13.4-13.1l15.4-4.1l14.2-20.4l14.2,20.4l15.4,4.1l-13.4,13.1
		L395.2,166.3z"/>
</g>
</svg>
