<svg height="512" viewBox="0 0 64 64" width="512" xmlns="http://www.w3.org/2000/svg"><g id="coronavirus-virus-human-mouth-neck"><path d="m36 44h-16.65a1 1 0 0 0 -.944 1.329 6.977 6.977 0 0 0 6.594 4.671h6v11a1 1 0 0 0 1 1h6a1 1 0 0 0 1-1v-14a3 3 0 0 0 -3-3zm1 16h-4v-11a1 1 0 0 0 -1-1h-7a4.993 4.993 0 0 1 -4-2h15a1 1 0 0 1 1 1z"/><path d="m61.94 24.3a24.055 24.055 0 0 0 -46.89-5.62l-5 15a1 1 0 0 0 .14.9.983.983 0 0 0 .81.42h7v2a1 1 0 0 0 1 1h21a5 5 0 0 1 5 5v18a1 1 0 0 0 1 1h6a1 1 0 0 0 1-1v-16.27a24.02 24.02 0 0 0 8.94-20.43zm-10.55 19.15a.985.985 0 0 0 -.39.79v15.76h-4v-17a7.008 7.008 0 0 0 -7-7h-20v-2a1 1 0 0 0 -1-1h-6.61l4.56-13.7a22.04 22.04 0 1 1 34.44 24.15z"/><path d="m21 40h2v2h-2z"/><path d="m25 40h2v2h-2z"/><path d="m29 40h2v2h-2z"/><path d="m33 40h2v2h-2z"/><path d="m37 40h2v2h-2z"/><path d="m41 42h2v2h-2z"/><path d="m41 46h2v2h-2z"/><path d="m41 50h2v2h-2z"/><path d="m41 54h2v2h-2z"/><path d="m41 58h2v2h-2z"/><path d="m18.707 40.293-4-4-1.414 1.414 2.293 2.293h-9.586v2h9.586l-2.293 2.293 1.414 1.414 4-4a1 1 0 0 0 0-1.414z"/><path d="m2 40h2v2h-2z"/><path d="m39 16a1 1 0 0 0 -1 1h-2.1a5.038 5.038 0 0 0 -.73-1.75l1.49-1.49a1 1 0 0 0 1.41-1.42l-1.41-1.41a1.008 1.008 0 0 0 -1.42 0 1 1 0 0 0 0 1.41l-1.49 1.49a5.038 5.038 0 0 0 -1.75-.73v-2.1a1 1 0 0 0 0-2h-2a1 1 0 0 0 0 2v2.1a5.038 5.038 0 0 0 -1.75.73l-1.49-1.49a1 1 0 0 0 0-1.41 1.008 1.008 0 0 0 -1.42 0l-1.41 1.41a1 1 0 0 0 1.41 1.42l1.49 1.49a5.038 5.038 0 0 0 -.73 1.75h-2.1a1 1 0 0 0 -2 0v2a1 1 0 0 0 2 0h2.1a5.038 5.038 0 0 0 .73 1.75l-1.49 1.49a1 1 0 0 0 -1.41 0 1.008 1.008 0 0 0 0 1.42l1.41 1.41a1.014 1.014 0 0 0 1.42 0 1 1 0 0 0 0-1.41l1.49-1.49a5.038 5.038 0 0 0 1.75.73v2.1a1 1 0 0 0 0 2h2a1 1 0 0 0 0-2v-2.1a5.038 5.038 0 0 0 1.75-.73l1.49 1.49a1 1 0 0 0 0 1.41 1.014 1.014 0 0 0 1.42 0l1.41-1.41a1.008 1.008 0 0 0 0-1.42 1 1 0 0 0 -1.41 0l-1.49-1.49a5.038 5.038 0 0 0 .73-1.75h2.1a1 1 0 0 0 2 0v-2a1 1 0 0 0 -1-1zm-8 5a3 3 0 1 1 3-3 3.009 3.009 0 0 1 -3 3z"/><path d="m30 17h2v2h-2z"/><path d="m57 25a1 1 0 0 0 -1 1h-2.1a5.038 5.038 0 0 0 -.73-1.75l1.49-1.49a1 1 0 0 0 1.41-1.42l-1.41-1.41a1.008 1.008 0 0 0 -1.42 0 1 1 0 0 0 0 1.41l-1.49 1.49a5.038 5.038 0 0 0 -1.75-.73v-2.1a1 1 0 0 0 0-2h-2a1 1 0 0 0 0 2v2.1a5.038 5.038 0 0 0 -1.75.73l-1.49-1.49a1 1 0 0 0 0-1.41 1.008 1.008 0 0 0 -1.42 0l-1.41 1.41a1 1 0 0 0 1.41 1.42l1.49 1.49a5.038 5.038 0 0 0 -.73 1.75h-2.1a1 1 0 0 0 -2 0v2a1 1 0 0 0 2 0h2.1a5.038 5.038 0 0 0 .73 1.75l-1.49 1.49a1 1 0 0 0 -1.41 0 1.008 1.008 0 0 0 0 1.42l1.41 1.41a1.014 1.014 0 0 0 1.42 0 1 1 0 0 0 0-1.41l1.49-1.49a5.038 5.038 0 0 0 1.75.73v2.1a1 1 0 0 0 0 2h2a1 1 0 0 0 0-2v-2.1a5.038 5.038 0 0 0 1.75-.73l1.49 1.49a1 1 0 0 0 0 1.41 1.014 1.014 0 0 0 1.42 0l1.41-1.41a1.008 1.008 0 0 0 0-1.42 1 1 0 0 0 -1.41 0l-1.49-1.49a5.038 5.038 0 0 0 .73-1.75h2.1a1 1 0 0 0 2 0v-2a1 1 0 0 0 -1-1zm-8 5a3 3 0 1 1 3-3 3.009 3.009 0 0 1 -3 3z"/><path d="m48 26h2v2h-2z"/></g></svg>