<?xml version="1.0" encoding="utf-8"?>
<!-- Generator: Adobe Illustrator 24.1.1, SVG Export Plug-In . SVG Version: 6.00 Build 0)  -->
<svg version="1.1" id="Layer_1" xmlns="http://www.w3.org/2000/svg" xmlns:xlink="http://www.w3.org/1999/xlink" x="0px" y="0px"
	 viewBox="0 0 512 512" style="enable-background:new 0 0 512 512;" xml:space="preserve">
<style type="text/css">
	.st0{fill:#FFFFFF;}
</style>
<g id="coronavirus-virus-human-mouth-neck">
	<path class="st0" d="M288,352H154.8c-4.4,0-8,3.6-8,8c0,0.9,0.2,1.8,0.4,2.6c7.8,22.4,29,37.4,52.8,37.4h48v88c0,4.4,3.6,8,8,8h48
		c4.4,0,8-3.6,8-8V376C312,362.7,301.3,352,288,352z M296,480h-32v-88c0-4.4-3.6-8-8-8h-56c-12.6,0-24.5-5.9-32-16h120
		c4.4,0,8,3.6,8,8V480z"/>
	<path class="st0" d="M495.5,194.4c-7.7-106-99.9-185.7-205.9-177.9c-78.2,5.7-145.2,58.3-169.2,133l-40,120
		c-0.8,2.4-0.4,5.1,1.1,7.2c1.5,2.1,3.9,3.4,6.5,3.4h56v16c0,4.4,3.6,8,8,8h168c22.1,0,40,17.9,40,40v144c0,4.4,3.6,8,8,8h48
		c4.4,0,8-3.6,8-8V357.8C473.2,318.4,499.9,257.3,495.5,194.4z M411.1,347.6c-2,1.5-3.1,3.8-3.1,6.3V480h-32V344
		c0-30.9-25.1-56-56-56H160v-16c0-4.4-3.6-8-8-8H99.1l36.5-109.6C165.1,61.6,264.3,10.3,357.1,39.8s144.1,128.7,114.6,221.5
		C460.8,295.5,439.6,325.7,411.1,347.6z"/>
	<path class="st0" d="M168,320h16v16h-16V320z"/>
	<path class="st0" d="M200,320h16v16h-16V320z"/>
	<path class="st0" d="M232,320h16v16h-16V320z"/>
	<path class="st0" d="M264,320h16v16h-16V320z"/>
	<path class="st0" d="M296,320h16v16h-16V320z"/>
	<path class="st0" d="M328,336h16v16h-16V336z"/>
	<path class="st0" d="M328,368h16v16h-16V368z"/>
	<path class="st0" d="M328,400h16v16h-16V400z"/>
	<path class="st0" d="M328,432h16v16h-16V432z"/>
	<path class="st0" d="M328,464h16v16h-16V464z"/>
	<path class="st0" d="M149.7,322.3l-32-32l-11.3,11.3l18.3,18.3H48v16h76.7l-18.3,18.3l11.3,11.3l32-32
		C152.8,330.5,152.8,325.5,149.7,322.3z"/>
	<path class="st0" d="M16,320h16v16H16V320z"/>
	<path class="st0" d="M240,136h16v16h-16V136z"/>
	<path class="st0" d="M384,208h16v16h-16V208z"/>
</g>
</svg>
