<?xml version="1.0" encoding="iso-8859-1"?>
<!-- Generator: Adobe Illustrator 19.0.0, SVG Export Plug-In . SVG Version: 6.00 Build 0)  -->
<svg version="1.1" id="Capa_1" xmlns="http://www.w3.org/2000/svg" xmlns:xlink="http://www.w3.org/1999/xlink" x="0px" y="0px"
	 viewBox="0 0 403.12 403.12" style="enable-background:new 0 0 403.12 403.12;" xml:space="preserve">
<g>
	<g>
		<path d="M201.56,96.751c-4.253,0.307-7.451,4.003-7.145,8.255c0.276,3.826,3.319,6.869,7.145,7.145
			c49.374,0,89.4,40.026,89.4,89.4c-0.307,4.253,2.892,7.949,7.145,8.255c4.253,0.307,7.949-2.892,8.255-7.145
			c0.027-0.37,0.027-0.741,0-1.111C306.36,143.672,259.439,96.751,201.56,96.751z"/>
	</g>
</g>
<g>
	<g>
		<path d="M309.56,93.551c-28.619-28.687-67.478-44.806-108-44.8c-4.253-0.307-7.949,2.892-8.255,7.145
			c-0.307,4.253,2.892,7.949,7.145,8.255c0.37,0.027,0.741,0.027,1.111,0c75.91,0,137.472,61.49,137.56,137.4
			c-0.307,4.253,2.892,7.949,7.145,8.255c4.253,0.307,7.949-2.892,8.255-7.145c0.027-0.37,0.027-0.741,0-1.111
			C354.489,161.005,338.31,122.142,309.56,93.551z"/>
	</g>
</g>
<g>
	<g>
		<path d="M344.08,59.031C265.363-19.68,137.743-19.676,59.031,59.04s-78.708,206.337,0.009,285.049s206.337,78.708,285.049-0.009
			c37.799-37.802,59.033-89.071,59.031-142.529C403.188,148.081,381.94,96.789,344.08,59.031z M333.2,333.191
			c-72.697,72.703-190.567,72.707-263.27,0.01s-72.707-190.567-0.01-263.27s190.567-72.707,263.27-0.01
			c34.912,34.91,54.527,82.258,54.53,131.63C387.789,250.938,368.167,298.315,333.2,333.191z"/>
	</g>
</g>
<g>
	<g>
		<path d="M242.28,160.831c-10.788-10.818-25.442-16.893-40.72-16.88c-31.812-0.01-57.608,25.77-57.619,57.581
			c-0.01,31.812,25.77,57.608,57.581,57.619c31.812,0.01,57.608-25.77,57.619-57.581
			C259.146,186.291,253.081,171.637,242.28,160.831z M231.4,231.391c-16.458,16.502-43.178,16.538-59.68,0.08
			c-16.502-16.458-16.538-43.177-0.08-59.68c16.458-16.502,43.177-16.538,59.68-0.08c7.929,7.907,12.39,18.642,12.4,29.84
			C243.748,212.741,239.314,223.481,231.4,231.391z"/>
	</g>
</g>
<g>
	<g>
		<path d="M208.705,346.256c-0.276-3.826-3.319-6.869-7.145-7.145c-75.972,0-137.56-61.588-137.56-137.56
			c0.307-4.253-2.892-7.949-7.145-8.255c-4.253-0.307-7.949,2.892-8.255,7.145c-0.027,0.37-0.027,0.741,0,1.111
			c0,84.477,68.483,152.96,152.96,152.96C205.813,354.204,209.011,350.508,208.705,346.256z"/>
	</g>
</g>
<g>
	<g>
		<path d="M202.671,290.951c-0.37-0.027-0.741-0.027-1.111,0c-49.374,0-89.4-40.026-89.4-89.4c0.307-4.253-2.892-7.949-7.145-8.255
			c-4.253-0.307-7.949,2.892-8.255,7.145c-0.027,0.37-0.027,0.741,0,1.111c0,57.879,46.921,104.8,104.8,104.8
			c4.253,0.307,7.949-2.892,8.255-7.145C210.122,294.954,206.923,291.258,202.671,290.951z"/>
	</g>
</g>
<g>
</g>
<g>
</g>
<g>
</g>
<g>
</g>
<g>
</g>
<g>
</g>
<g>
</g>
<g>
</g>
<g>
</g>
<g>
</g>
<g>
</g>
<g>
</g>
<g>
</g>
<g>
</g>
<g>
</g>
</svg>
