<?xml version="1.0" encoding="utf-8"?>
<!-- Generator: Adobe Illustrator 24.1.1, SVG Export Plug-In . SVG Version: 6.00 Build 0)  -->
<svg version="1.1" id="Capa_1" xmlns="http://www.w3.org/2000/svg" xmlns:xlink="http://www.w3.org/1999/xlink" x="0px" y="0px"
	 viewBox="0 0 403.1 403.1" style="enable-background:new 0 0 403.1 403.1;" xml:space="preserve">
<style type="text/css">
	.st0{fill:#FFFFFF;}
</style>
<g>
	<g>
		<path class="st0" d="M201.6,96.8c-4.3,0.3-7.5,4-7.1,8.3c0.3,3.8,3.3,6.9,7.1,7.1c49.4,0,89.4,40,89.4,89.4
			c-0.3,4.3,2.9,7.9,7.1,8.3c4.3,0.3,7.9-2.9,8.3-7.1c0-0.4,0-0.7,0-1.1C306.4,143.7,259.4,96.8,201.6,96.8z"/>
	</g>
</g>
<g>
	<g>
		<path class="st0" d="M309.6,93.6c-28.6-28.7-67.5-44.8-108-44.8c-4.3-0.3-7.9,2.9-8.3,7.1c-0.3,4.3,2.9,7.9,7.1,8.3
			c0.4,0,0.7,0,1.1,0c75.9,0,137.5,61.5,137.6,137.4c-0.3,4.3,2.9,7.9,7.1,8.3c4.3,0.3,7.9-2.9,8.3-7.1c0-0.4,0-0.7,0-1.1
			C354.5,161,338.3,122.1,309.6,93.6z"/>
	</g>
</g>
<g>
	<g>
		<path class="st0" d="M344.1,59c-78.7-78.7-206.3-78.7-285,0s-78.7,206.3,0,285s206.3,78.7,285,0c37.8-37.8,59-89.1,59-142.5
			C403.2,148.1,381.9,96.8,344.1,59z M333.2,333.2c-72.7,72.7-190.6,72.7-263.3,0s-72.7-190.6,0-263.3s190.6-72.7,263.3,0
			c34.9,34.9,54.5,82.3,54.5,131.6C387.8,250.9,368.2,298.3,333.2,333.2z"/>
	</g>
</g>
<g>
	<g>
		<path class="st0" d="M242.3,160.8c-10.8-10.8-25.4-16.9-40.7-16.9c-31.8,0-57.6,25.8-57.6,57.6c0,31.8,25.8,57.6,57.6,57.6
			c31.8,0,57.6-25.8,57.6-57.6C259.1,186.3,253.1,171.6,242.3,160.8z M231.4,231.4c-16.5,16.5-43.2,16.5-59.7,0.1
			s-16.5-43.2-0.1-59.7c16.5-16.5,43.2-16.5,59.7-0.1c7.9,7.9,12.4,18.6,12.4,29.8C243.7,212.7,239.3,223.5,231.4,231.4z"/>
	</g>
</g>
<g>
	<g>
		<path class="st0" d="M208.7,346.3c-0.3-3.8-3.3-6.9-7.1-7.1c-76,0-137.6-61.6-137.6-137.6c0.3-4.3-2.9-7.9-7.1-8.3
			c-4.3-0.3-7.9,2.9-8.3,7.1c0,0.4,0,0.7,0,1.1c0,84.5,68.5,153,153,153C205.8,354.2,209,350.5,208.7,346.3z"/>
	</g>
</g>
<g>
	<g>
		<path class="st0" d="M202.7,291c-0.4,0-0.7,0-1.1,0c-49.4,0-89.4-40-89.4-89.4c0.3-4.3-2.9-7.9-7.1-8.3c-4.3-0.3-7.9,2.9-8.3,7.1
			c0,0.4,0,0.7,0,1.1c0,57.9,46.9,104.8,104.8,104.8c4.3,0.3,7.9-2.9,8.3-7.1C210.1,295,206.9,291.3,202.7,291z"/>
	</g>
</g>
</svg>
