<?xml version="1.0" encoding="utf-8"?>
<!-- Generator: Adobe Illustrator 24.1.1, SVG Export Plug-In . SVG Version: 6.00 Build 0)  -->
<svg version="1.1" id="Layer_1" xmlns="http://www.w3.org/2000/svg" xmlns:xlink="http://www.w3.org/1999/xlink" x="0px" y="0px"
	 viewBox="0 0 512 512" style="enable-background:new 0 0 512 512;" xml:space="preserve">
<style type="text/css">
	.st0{fill:#FFFFFF;}
</style>
<g>
	<g>
		<g>
			<path class="st0" d="M0,256c0,141.4,114.6,256,256,256s256-114.6,256-256S397.4,0,256,0S0,114.6,0,256z M469.3,256
				c0,117.8-95.5,213.3-213.3,213.3S42.7,373.8,42.7,256S138.2,42.7,256,42.7S469.3,138.2,469.3,256z"/>
			<path class="st0" d="M268.8,110.9c-0.3-0.2-0.6-0.5-0.9-0.7c-0.3-0.2-0.6-0.4-0.9-0.6c-0.3-0.2-0.6-0.4-0.9-0.5
				c-0.3-0.2-0.6-0.3-1-0.5c-0.3-0.1-0.6-0.3-0.9-0.4c-0.3-0.1-0.6-0.2-1-0.3c-0.3-0.1-0.7-0.3-1-0.4c-0.3-0.1-0.6-0.2-1-0.2
				c-0.4-0.1-0.7-0.2-1.1-0.3c-0.4-0.1-0.7-0.1-1.1-0.2c-0.3,0-0.6-0.1-0.9-0.1c-1.4-0.1-2.8-0.1-4.2,0c-0.3,0-0.6,0.1-0.9,0.1
				c-0.4,0.1-0.8,0.1-1.1,0.2c-0.4,0.1-0.7,0.2-1.1,0.3c-0.3,0.1-0.6,0.2-1,0.2c-0.3,0.1-0.7,0.2-1,0.4c-0.3,0.1-0.6,0.2-1,0.3
				c-0.3,0.1-0.6,0.3-0.9,0.4c-0.3,0.2-0.6,0.3-1,0.5c-0.3,0.2-0.6,0.3-0.9,0.5c-0.3,0.2-0.6,0.4-0.9,0.6c-0.3,0.2-0.6,0.4-0.9,0.7
				c-0.3,0.2-0.5,0.4-0.8,0.6c-0.5,0.4-1.1,0.9-1.6,1.4c0,0,0,0,0,0l-85.3,85.3c-8.3,8.3-8.3,21.8,0,30.2s21.8,8.3,30.2,0l48.9-48.9
				V384c0,11.8,9.6,21.3,21.3,21.3s21.3-9.6,21.3-21.3V179.5l48.9,48.9c8.3,8.3,21.8,8.3,30.2,0c8.3-8.3,8.3-21.8,0-30.2l-85.3-85.3
				c0,0,0,0,0,0c-0.5-0.5-1-1-1.6-1.4C269.3,111.3,269,111.1,268.8,110.9z"/>
		</g>
	</g>
</g>
</svg>
