<?xml version="1.0" encoding="utf-8"?>
<!-- Generator: Adobe Illustrator 24.1.1, SVG Export Plug-In . SVG Version: 6.00 Build 0)  -->
<svg version="1.1" id="Layer_1" xmlns="http://www.w3.org/2000/svg" xmlns:xlink="http://www.w3.org/1999/xlink" x="0px" y="0px"
	 viewBox="0 0 512 512" style="enable-background:new 0 0 512 512;" xml:space="preserve">
<style type="text/css">
	.st0{fill:#FFFFFF;}
</style>
<path id="Shape" class="st0" d="M388.6,171.7c-6.6-6.5-15.1-10.7-24.3-11.9L509.4,14.7c2.5-2.4,3.3-6.1,2-9.3
	c-1.3-3.2-4.4-5.3-7.9-5.4H326.9c-20.2,0.1-39.6,8.2-53.8,22.5L171.7,123.4c-6.5,6.6-10.7,15.1-11.9,24.3L14.8,2.6
	c-2.4-2.6-6.1-3.4-9.4-2.1S0,5,0,8.5v176.6c0,20.4,8.1,39.9,22.5,54.3l100.9,100.9c6.6,6.5,15.1,10.7,24.3,11.9L2.6,497.2
	c-2.6,2.4-3.4,6.1-2.1,9.4c1.3,3.3,4.5,5.4,8,5.4h176.6c20.4,0,39.9-8.1,54.3-22.5l100.9-100.9c6.5-6.6,10.7-15.1,11.9-24.3
	l145.1,145.1c2.4,2.6,6.1,3.4,9.4,2.1c3.3-1.3,5.4-4.5,5.4-8V326.9c-0.1-20.2-8.2-39.6-22.5-53.8L388.6,171.7z M376.5,183.8l65.1,65
	c-10.8-1.9-2.6-1.4-165-1.4l63.7-63.7C350.3,173.8,366.5,173.8,376.5,183.8z M264.5,85.3c0-37.7,30.6-68.3,68.3-68.3h150.1
	L264.5,235.4V85.3z M17.1,179.2V29.1l218.4,218.4H85.3C47.6,247.5,17.1,216.9,17.1,179.2z M135.5,328.2l-65.1-65
	c10.8,1.9,2.2,1.4,165,1.4l-63.7,63.7C161.7,338.2,145.5,338.2,135.5,328.2z M247.5,426.7c0,37.7-30.6,68.3-68.3,68.3H29.1
	l218.4-218.4V426.7z M247.5,235.4l-63.7-63.7c-10-10-10-26.2,0-36.2l65-65.1C247,81.2,247.5,72.6,247.5,235.4z M328.2,376.5
	l-65,65.1c1.9-10.8,1.4-2.2,1.4-165l63.7,63.7C338.2,350.3,338.2,366.5,328.2,376.5z M494.9,482.9L276.6,264.5h150.1
	c37.7,0,68.3,30.6,68.3,68.3V482.9z"/>
</svg>
