<?xml version="1.0" encoding="utf-8"?>
<!-- Generator: Adobe Illustrator 24.1.1, SVG Export Plug-In . SVG Version: 6.00 Build 0)  -->
<svg version="1.1" id="Outline" xmlns="http://www.w3.org/2000/svg" xmlns:xlink="http://www.w3.org/1999/xlink" x="0px" y="0px"
	 viewBox="0 0 512 512" style="enable-background:new 0 0 512 512;" xml:space="preserve">
<style type="text/css">
	.st0{fill:#FFFFFF;}
</style>
<path class="st0" d="M440,368h-18.8l-17.6-40h4.4c4.4,0,8-3.6,8-8s-3.6-8-8-8h-11.4l-7-16h2.5c4.4,0,8-3.6,8-8s-3.6-8-8-8h-9.5
	l-7-16h0.5c4.4,0,8-3.6,8-8s-3.6-8-8-8h-7.6l-7.1-16.1c4.4-0.8,7.3-4.9,6.5-9.3c-0.7-3.8-4-6.6-7.8-6.6h-5.7L336,174.3V144
	c0-1.4-0.1-2.9-0.4-4.3l110-110c3.1-3.1,3.1-8.2,0-11.3c-1.5-1.5-3.5-2.3-5.7-2.3H216c-2.1,0-4.2,0.8-5.7,2.3L192,36.7
	c-9.5-8.5-23.9-8.1-32.9,0.9L50.3,146.3l-10.5,10.5c-28.1,28.1-28.1,73.7,0,101.8c0,0,0,0,0,0l78.1,78.1c4.5,4.5,10.6,7,17,7H160
	c4.4,0,8,3.6,8,8v25.6c0,6.4,2.5,12.5,7,17l66.5,66.5c22.5,22.6,53,35.2,84.9,35.1H456c22.1,0,40-17.9,40-40v-32
	C496,393.1,470.9,368,440,368z M440,384c22.1,0,40,17.9,40,40v8h-96.2c-23.4,0.1-45.8-9.2-62.2-25.8L112.3,196.9
	c21-26.3,21-63.6,0-89.9L136,83.3v4.9c-0.1,27.6,10.9,54.1,30.5,73.5l39.8,39.8c19.5,19.6,45.9,30.5,73.5,30.5h24.1l7,16H288
	c-4.4,0-8,3.6-8,8s3.6,8,8,8h30l7,16h-21c-4.4,0-8,3.6-8,8s3.6,8,8,8h28.1l7,16H320c-4.4,0-8,3.6-8,8s3.6,8,8,8h26.1l14.1,32.1
	c6.4,14.5,20.8,23.9,36.6,23.9H440z M403.7,368h-6.9c-9.5,0-18.1-5.6-22-14.3L363.6,328h22.5L403.7,368z M379.1,312h-22.5l-7-16
	h22.5L379.1,312z M365,280h-22.5l-7-16H358L365,280z M328.4,248l-7-16h22.5l7,16H328.4z M314.3,216l-14.1-32h22.5l14.1,32H314.3z
	 M320,168h-37.5c-0.8,0-1.7,0-2.5-0.1V144c0-4.4,3.6-8,8-8h24c4.4,0,8,3.6,8,8V168z M219.3,32h201.4l-93.5,93.5
	c-4.3-3.5-9.7-5.5-15.2-5.5h-24c-13.2,0-24,10.8-24,24v20.9c-7.9-2.8-15.1-7.3-21.1-13.3l-26.5-26.5c-10.5-10.5-16.4-24.7-16.4-39.6
	V54.6c0-1-0.1-2.1-0.2-3.1L219.3,32z M170.3,49c3.1-3.1,8.2-3.1,11.3,0c1.5,1.5,2.3,3.5,2.3,5.7v30.9c-0.1,19.1,7.5,37.4,21.1,50.9
	l26.5,26.5c13.5,13.5,31.8,21.1,50.9,21.1h0.3l14.1,32h-17.1c-23.3,0.1-45.8-9.2-62.2-25.8l-39.8-39.8
	c-16.6-16.5-25.8-38.9-25.8-62.2V67.3L170.3,49z M100.9,118.5c14.9,19.9,14.9,47.2,0,67.1L67.3,152L100.9,118.5z M456,480h-24v-8
	c0-4.4-3.6-8-8-8s-8,3.6-8,8v8h-48v-8c0-4.4-3.6-8-8-8s-8,3.6-8,8v8h-25.6c-24.4,0.1-48.1-8.5-66.8-24.3l18.1-18.1
	c3.1-3.1,3.1-8.2,0-11.3s-8.2-3.1-11.3,0L248,444.7L211.3,408l18.3-18.3c3.1-3.1,3.1-8.2,0-11.3s-8.2-3.1-11.3,0L200,396.7
	L186.3,383c-1.5-1.5-2.3-3.5-2.3-5.7v-25.6c0-13.2-10.8-24-24-24h-25.2c-2.1,0-4.2-0.8-5.7-2.3l-29.7-29.7l18.1-18.1
	c3.1-3.1,3.1-8.2,0-11.3c-3.1-3.1-8.2-3.1-11.3,0l-18.1,18.1l-36.7-36.7l18.1-18.1c3.1-3.1,3.1-8.2,0-11.3c-3.1-3.1-8.2-3.1-11.3,0
	l0,0l-16.6,16.6c-12.1-21.9-8.3-49.1,9.4-66.8l4.9-4.9l254.2,254.2c19.5,19.6,45.9,30.5,73.5,30.5H480v8
	C480,469.2,469.2,480,456,480z"/>
<path class="st0" d="M24,352h72c4.4,0,8-3.6,8-8s-3.6-8-8-8H24c-4.4,0-8,3.6-8,8S19.6,352,24,352z"/>
<path class="st0" d="M192,432H24c-4.4,0-8,3.6-8,8s3.6,8,8,8h168c4.4,0,8-3.6,8-8S196.4,432,192,432z"/>
<path class="st0" d="M24,400h120c4.4,0,8-3.6,8-8s-3.6-8-8-8H24c-4.4,0-8,3.6-8,8S19.6,400,24,400z"/>
</svg>
