<?xml version="1.0" encoding="utf-8"?>
<!-- Generator: Adobe Illustrator 24.1.1, SVG Export Plug-In . SVG Version: 6.00 Build 0)  -->
<svg version="1.1" id="Layer_1" xmlns="http://www.w3.org/2000/svg" xmlns:xlink="http://www.w3.org/1999/xlink" x="0px" y="0px"
	 viewBox="0 0 512 512" style="enable-background:new 0 0 512 512;" xml:space="preserve">
<style type="text/css">
	.st0{fill:#FFFFFF;}
</style>
<path class="st0" d="M416,288h96V128h-32c0-35.3-28.7-64-64-64h-32c0-35.3-28.7-64-64-64H192c-35.3,0-64,28.7-64,64H96
	c-35.3,0-64,28.7-64,64H0v160h96V128H64c0-17.7,14.3-32,32-32h32v256H64v32h352v32H64v32h64v48h32v-48h192v48h32v-48h64v-96h-64V96
	h32c17.7,0,32,14.3,32,32h-32V288z M64,256H32v-96h32V256z M192,32h48v32h-80C160,46.3,174.3,32,192,32z M352,352H160V96h192V352z
	 M272,64V32h48c17.7,0,32,14.3,32,32H272z M448,160h32v96h-32V160z"/>
<text transform="matrix(1 0 0 1 960 540)" style="font-family:'MyriadPro-Regular'; font-size:12px;">_white</text>
</svg>
