<?xml version="1.0"?>
<svg xmlns="http://www.w3.org/2000/svg" viewBox="0 0 512 512" width="512" height="512"><g id="Out_line" data-name="Out line"><path d="M479.583,120.9668l-8.50635-14.98633c-.02246-.03906-.04492-.07813-.06787-.11719a138.60118,138.60118,0,0,0-21.352-27.52051A138.10986,138.10986,0,0,0,256,76.71289,138.10986,138.10986,0,0,0,62.34326,78.34277c-53.84765,53.84864-53.84765,141.46582,0,195.31446l188,188a8.00063,8.00063,0,0,0,11.31348,0l32-32-11.31348-11.31446L256,444.68652,73.65674,262.34277A122.10746,122.10746,0,0,1,246.34326,89.65723l4,4a8.00182,8.00182,0,0,0,11.31348,0l4-4a122.10816,122.10816,0,0,1,172.686-.001,122.59832,122.59832,0,0,1,18.85352,24.2832l8.47217,14.92578a109.94989,109.94989,0,0,1-17.87207,132.02442l-10.15674,10.15723a41.61866,41.61866,0,0,1-22.71338,11.68847A57.83326,57.83326,0,0,0,368.311,325.76953l-2.2378,8.95117a41.631,41.631,0,0,1-23.28418,27.95118l-62.835,28.56152a152.8851,152.8851,0,0,1-74.80566-73.71973L159.23,220.5752a7.99687,7.99687,0,0,0-3.65234-3.73047L144,211.05566V168h18.02527A64.02406,64.02406,0,0,0,224,248c1.51776,0,3.01819-.07227,4.50989-.17676l53.83337,53.834,11.31348-11.31446-12.26819-12.26855a130.6376,130.6376,0,0,1,82.37952-74.05274l14.53076-4.35937A7.99868,7.99868,0,0,0,384,192V152H368v34.04785l-8.82959,2.64844a144.22548,144.22548,0,0,0-26.23877,10.80737,75.94523,75.94523,0,0,1,62.55176-86.64038l5.83154-.97168-2.62988-15.7832-5.832.97168A91.95241,91.95241,0,0,0,317.8042,205.81445l.51684,2.58448a146.95814,146.95814,0,0,0-49.041,57.56689L247.01624,243.7019A63.98449,63.98449,0,1,0,172.021,146.73,63.99752,63.99752,0,1,0,120,248a63.40013,63.40013,0,0,0,30.7843-7.87793l39.90418,84.24121a168.88012,168.88012,0,0,0,86.16015,82.99024,7.99606,7.99606,0,0,0,6.46192-.07032l66.09961-30.04492a57.55222,57.55222,0,0,0,32.18554-38.63672l2.2378-8.95117a41.83888,41.83888,0,0,1,33.72265-31.13281,57.52577,57.52577,0,0,0,31.39746-16.15723l10.15625-10.15625A125.95062,125.95062,0,0,0,479.583,120.9668ZM224,136a48,48,0,1,1-48,48A48.05405,48.05405,0,0,1,224,136ZM72,184A47.98263,47.98263,0,0,1,155.752,152H136a8.00008,8.00008,0,0,0-8,8h-8a24,24,0,0,0,0,48h8v8a7.99979,7.99979,0,0,0,4.42236,7.15527l8.31354,4.15723A48.03837,48.03837,0,0,1,72,184Zm56,8h-8a8,8,0,0,1,0-16h8Z"/><path d="M248,160H232a24,24,0,0,0,0,48h16a24,24,0,0,0,0-48Zm0,32H232a8,8,0,0,1,0-16h16a8,8,0,0,1,0,16Z"/><path d="M309.19092,288.50977l5.61816,14.98046a158.343,158.343,0,0,0,92.68164-92.68164l-14.98144-5.61718A142.35153,142.35153,0,0,1,309.19092,288.50977Z"/><path d="M440.06152,223.00781l15.87647,1.98438,2.38672-19.09473a99.88019,99.88019,0,0,0-28.668-83.55469l-11.31348,11.31446a83.98339,83.98339,0,0,1,24.105,70.25586Z"/></g></svg>
