<?xml version="1.0" encoding="utf-8"?>
<!-- Generator: Adobe Illustrator 24.1.1, SVG Export Plug-In . SVG Version: 6.00 Build 0)  -->
<svg version="1.1" id="Layer_1" xmlns="http://www.w3.org/2000/svg" xmlns:xlink="http://www.w3.org/1999/xlink" x="0px" y="0px"
	 viewBox="0 0 512 512" style="enable-background:new 0 0 512 512;" xml:space="preserve">
<style type="text/css">
	.st0{fill:#FFFFFF;}
</style>
<g id="Out_line">
	<path class="st0" d="M479.6,121l-8.5-15c0,0,0-0.1-0.1-0.1c-5.9-10-13.1-19.3-21.4-27.5C396.4,25,310.2,24.3,256,76.7
		c-54.2-52.4-140.4-51.7-193.7,1.6c-53.8,53.8-53.8,141.5,0,195.3l188,188c3.1,3.1,8.2,3.1,11.3,0l32-32l-11.3-11.3L256,444.7
		L73.7,262.3c-47.7-47.7-47.7-125,0-172.7s125-47.7,172.7,0l4,4c3.1,3.1,8.2,3.1,11.3,0l4-4c47.7-47.7,125-47.7,172.7,0
		c7.3,7.3,13.6,15.4,18.9,24.3l8.5,14.9c24.4,43,17.1,97-17.9,132L437.6,271c-6.2,6.2-14.1,10.3-22.7,11.7
		c-22.7,3.8-41,20.7-46.6,43l-2.2,9c-3.1,12.4-11.6,22.7-23.3,28L280,391.2c-32.9-15-59.4-41.1-74.8-73.7l-45.9-96.9
		c-0.8-1.6-2.1-2.9-3.7-3.7l-11.6-5.8V168h18c-8.8,34.2,11.8,69.2,46,78c5.2,1.3,10.6,2,16,2c1.5,0,3-0.1,4.5-0.2l53.8,53.8
		l11.3-11.3l-12.3-12.3c15.1-35.7,45.3-62.8,82.4-74.1l14.5-4.4c3.4-1,5.7-4.1,5.7-7.7v-40h-16v34l-8.8,2.6
		c-9.1,2.7-17.9,6.4-26.2,10.8c-6.4-41.1,21.5-79.8,62.6-86.6l5.8-1l-2.6-15.8l-5.8,1c-50.1,8.3-83.9,55.7-75.6,105.8
		c0.2,1,0.3,1.9,0.5,2.9l0.5,2.6c-21.1,14.6-38,34.4-49,57.6L247,243.7c33-12.7,49.4-49.7,36.7-82.7c-12.7-33-49.7-49.4-82.7-36.7
		c-11.7,4.5-21.8,12.3-29,22.5c-20.6-28.7-60.6-35.3-89.3-14.8S47.4,192.5,68,221.3c12,16.8,31.4,26.7,52,26.7
		c10.8,0,21.4-2.7,30.8-7.9l39.9,84.2c17.6,37.2,48.3,66.8,86.2,83c2.1,0.9,4.4,0.9,6.5-0.1l66.1-30c16.1-7.3,27.9-21.5,32.2-38.6
		l2.2-9c4-16.2,17.3-28.4,33.7-31.1c11.9-2,22.9-7.6,31.4-16.2l10.2-10.2C499.2,232.1,507.6,170.2,479.6,121z M224,136
		c26.5,0,48,21.5,48,48s-21.5,48-48,48s-48-21.5-48-48C176,157.5,197.5,136,224,136z M72,184c0-26.5,21.5-48,48-48
		c13.7,0,26.7,5.8,35.8,16H136c-4.4,0-8,3.6-8,8h-8c-13.3,0-24,10.7-24,24s10.7,24,24,24h8v8c0,3,1.7,5.8,4.4,7.2l8.3,4.2
		c-23.9,11.4-52.6,1.3-64-22.7C73.6,198.2,72,191.1,72,184z M128,192h-8c-4.4,0-8-3.6-8-8s3.6-8,8-8h8V192z"/>
	<path class="st0" d="M248,160h-16c-13.3,0-24,10.7-24,24s10.7,24,24,24h16c13.3,0,24-10.7,24-24S261.3,160,248,160z M248,192h-16
		c-4.4,0-8-3.6-8-8s3.6-8,8-8h16c4.4,0,8,3.6,8,8S252.4,192,248,192z"/>
	<path class="st0" d="M309.2,288.5l5.6,15c42.8-16.1,76.6-49.9,92.7-92.7l-15-5.6C378.1,243.7,347.7,274.1,309.2,288.5z"/>
	<path class="st0" d="M440.1,223l15.9,2l2.4-19.1c3.9-30.8-6.6-61.7-28.7-83.6l-11.3,11.3c18.5,18.4,27.4,44.4,24.1,70.3L440.1,223z
		"/>
</g>
</svg>
