<svg xmlns="http://www.w3.org/2000/svg" width="18.42" height="20" viewBox="0 0 18.42 20">
  <g id="slideMark" transform="translate(-59 -1547.55)">
    <path id="tesla_down" d="M20,1.42a.938.938,0,0,1-.3.7L10,11.82.3,2.12A.99.99,0,0,1,.3.7.99.99,0,0,1,1.72.7L10,9,18.3.7a.99.99,0,0,1,1.42,0A1.085,1.085,0,0,1,20,1.42Z" transform="translate(58.6 1567.55) rotate(-90)" fill="gray"/>
    <path id="tesla_down-2" data-name="tesla_down" d="M20,1.42a.938.938,0,0,1-.3.7L10,11.82.3,2.12A.99.99,0,0,1,.3.7.99.99,0,0,1,1.72.7L10,9,18.3.7a.99.99,0,0,1,1.42,0A1.085,1.085,0,0,1,20,1.42Z" transform="translate(65.6 1567.55) rotate(-90)" fill="gray"/>
  </g>
</svg>
