<svg id="tesla_logo_wh" xmlns="http://www.w3.org/2000/svg" width="960" height="89.086" viewBox="0 0 960 89.086">
  <path id="tesla_logo_wh-2" data-name="tesla_logo_wh" d="M0,.255C2.529,8.96,10.064,15.732,19.677,17.94H50.4l1.574.561V88.882H71.145V18.6l1.743-.561H103.64c9.577-2.266,17.084-9.014,19.677-17.685V.179H0Zm670.724-.1H651.609V89.086h87.533c8.42-2.959,14.675-9.517,16.7-17.506H670.668L670.724.153Zm-147.1,17.506C533.8,15.107,542.347,7.911,544.4.1L437.3.255V52.7h87.618v18.45H456.163A37.733,37.733,0,0,0,431.679,89.01H543.809V35.242h-87.59V17.659Zm326.55,71.376h19V53.258h69.093V89.035h18.974V35.395l-107.07-.1ZM239.916,17.863H313C322.76,15.732,330.4,8.845,332.818,0H220.1c2.44,8.833,10.071,15.711,19.817,17.863Zm0,35.139H313c9.753-2.142,17.389-9.024,19.817-17.863H220.1c2.451,8.827,10.077,15.7,19.817,17.863Zm0,36.084H313c9.753-2.142,17.389-9.024,19.817-17.863H220.1c2.446,8.83,10.074,15.706,19.817,17.863ZM867.07,17.914h73.085C949.922,15.786,957.572,8.9,960,.051H847.252c2.429,8.839,10.064,15.721,19.817,17.863Z"/>
</svg>
