<?xml version="1.0" encoding="utf-8"?>
<!-- Generator: Adobe Illustrator 22.0.1, SVG Export Plug-In . SVG Version: 6.00 Build 0)  -->
<svg version="1.1" id="Layer_1" xmlns="http://www.w3.org/2000/svg" xmlns:xlink="http://www.w3.org/1999/xlink" x="0px" y="0px"
	 viewBox="0 0 100 100" style="enable-background:new 0 0 100 100;" xml:space="preserve">
<style type="text/css">
	.st0{fill:#D8D8D8;}
</style>
<g>
	<path class="st0" d="M60.6,49c0,6.4-5.2,11.6-11.6,11.6S37.4,55.4,37.4,49S42.6,37.4,49,37.4S60.6,42.6,60.6,49z"/>
	<path class="st0" d="M76.2,28.4c-0.6-1.5-1.5-2.9-2.6-4c-1.1-1.2-2.5-2.1-4-2.6c-1.2-0.5-3.1-1-6.5-1.2c-3.7-0.2-4.8-0.2-14.1-0.2
		c-9.3,0-10.4,0-14.1,0.2c-3.4,0.2-5.3,0.7-6.5,1.2c-1.5,0.6-2.9,1.5-4,2.6c-1.2,1.1-2.1,2.5-2.6,4c-0.5,1.2-1,3.1-1.2,6.5
		c-0.2,3.7-0.2,4.8-0.2,14.1c0,9.3,0,10.4,0.2,14.1c0.2,3.4,0.7,5.3,1.2,6.5c0.6,1.5,1.5,2.9,2.6,4c1.1,1.2,2.5,2.1,4,2.6
		c1.2,0.5,3.1,1,6.5,1.2c3.7,0.2,4.8,0.2,14.1,0.2c9.3,0,10.4,0,14.1-0.2c3.4-0.2,5.3-0.7,6.5-1.2c3-1.2,5.5-3.6,6.6-6.6
		c0.5-1.2,1-3.1,1.2-6.5c0.2-3.7,0.2-4.8,0.2-14.1c0-9.3,0-10.4-0.2-14.1C77.3,31.5,76.7,29.6,76.2,28.4z M49,66.9
		c-9.9,0-17.9-8-17.9-17.9s8-17.9,17.9-17.9c9.9,0,17.9,8,17.9,17.9S58.9,66.9,49,66.9z M67.6,34.5c-2.3,0-4.2-1.9-4.2-4.2
		s1.9-4.2,4.2-4.2c2.3,0,4.2,1.9,4.2,4.2C71.8,32.7,70,34.5,67.6,34.5z"/>
	<path class="st0" d="M49-11.8c-33.6,0-60.8,27.2-60.8,60.8s27.2,60.8,60.8,60.8s60.8-27.2,60.8-60.8S82.6-11.8,49-11.8z M83.7,63.4
		c-0.2,3.7-0.8,6.3-1.6,8.5c-1.8,4.7-5.5,8.4-10.2,10.2c-2.2,0.9-4.8,1.5-8.5,1.6c-3.7,0.2-4.9,0.2-14.4,0.2c-9.5,0-10.7,0-14.4-0.2
		c-3.7-0.2-6.3-0.8-8.5-1.6c-2.3-0.9-4.4-2.3-6.2-4c-1.8-1.7-3.2-3.9-4-6.2c-0.9-2.2-1.5-4.8-1.6-8.5c-0.2-3.7-0.2-4.9-0.2-14.4
		s0-10.7,0.2-14.4c0.2-3.7,0.8-6.3,1.6-8.5c0.9-2.3,2.3-4.4,4-6.2c1.7-1.8,3.9-3.2,6.2-4c2.2-0.9,4.8-1.5,8.5-1.6
		c3.7-0.2,4.9-0.2,14.4-0.2s10.7,0,14.4,0.2c3.7,0.2,6.3,0.8,8.5,1.6c2.3,0.9,4.4,2.3,6.2,4c1.8,1.7,3.2,3.9,4,6.2
		c0.9,2.2,1.5,4.8,1.6,8.5c0.2,3.7,0.2,4.9,0.2,14.4S83.9,59.7,83.7,63.4z"/>
</g>
<path class="st0" d="M50-41.3c-49.7,0-90,40.3-90,90s40.3,90,90,90s90-40.3,90-90S99.7-41.3,50-41.3z M50,105
	C18.9,105-6.3,79.8-6.3,48.8S18.9-7.5,50-7.5s56.3,25.2,56.3,56.3S81.1,105,50,105z"/>
</svg>
