<?xml version="1.0" encoding="utf-8"?>
<!-- Generator: Adobe Illustrator 22.0.1, SVG Export Plug-In . SVG Version: 6.00 Build 0)  -->
<svg version="1.1" id="Layer_1" xmlns="http://www.w3.org/2000/svg" xmlns:xlink="http://www.w3.org/1999/xlink" x="0px" y="0px"
	 viewBox="0 0 100 100" style="enable-background:new 0 0 100 100;" xml:space="preserve">
<style type="text/css">
	.st0{fill:none;stroke:#FFFFFF;stroke-width:7.9598;stroke-miterlimit:10;}
</style>
<path class="st0" d="M48.9,91.2c0.1,0.1,0.1,0.1,0.2,0.2c6.3-7.6,14.2-13.5,21.8-20c7.4-6.4,14.6-13.6,18.5-22.8
	c3.8-9.1,3.7-20.3-2.5-28c-4.5-5.5-11.8-8.3-18.9-7.8c-7.1,0.6-13.9,4.7-17.8,10.6c-3-6-9-10.4-15.6-11.5
	c-8.6-1.4-16.9,2.7-21.6,9.9c-4.6,7-4.9,16.2-2.3,24c3.1,9.6,9.9,17.3,17.2,24.3C34.9,77.1,42.8,83.4,48.9,91.2z"/>
</svg>
