<?xml version="1.0" encoding="utf-8"?>
<!-- Generator: Adobe Illustrator 22.0.1, SVG Export Plug-In . SVG Version: 6.00 Build 0)  -->
<svg version="1.1" id="Layer_1" xmlns="http://www.w3.org/2000/svg" xmlns:xlink="http://www.w3.org/1999/xlink" x="0px" y="0px"
	 viewBox="0 0 100 100" style="enable-background:new 0 0 100 100;" xml:space="preserve">
<style type="text/css">
	.st0{fill:#212529;}
</style>
<path class="st0" d="M48.1,96.9c0.1,0.1,0.1,0.1,0.2,0.2c7.4-9,16.9-16,25.8-23.6c8.8-7.6,17.3-16.1,21.9-26.9
	c4.5-10.7,4.4-24.1-3-33.1C87.7,7,79,3.6,70.6,4.3S54.2,9.8,49.5,16.8C45.9,9.7,38.9,4.5,31.1,3.2c-10.2-1.7-20,3.2-25.5,11.7
	c-5.4,8.3-5.8,19.2-2.8,28.4C6.5,54.6,14.6,63.8,23.1,72C31.6,80.1,40.9,87.6,48.1,96.9z"/>
</svg>
